G04 #@! TF.GenerationSoftware,KiCad,Pcbnew,(2017-06-14 revision cf083a20c)-makepkg*
G04 #@! TF.CreationDate,2017-07-19T11:09:17+02:00*
G04 #@! TF.ProjectId,dds_pi,6464735F70692E6B696361645F706362,1.0*
G04 #@! TF.SameCoordinates,Original
G04 #@! TF.FileFunction,Legend,Top*
G04 #@! TF.FilePolarity,Positive*
%FSLAX46Y46*%
G04 Gerber Fmt 4.6, Leading zero omitted, Abs format (unit mm)*
G04 Created by KiCad (PCBNEW (2017-06-14 revision cf083a20c)-makepkg) date 07/19/17 11:09:17*
%MOMM*%
%LPD*%
G01*
G04 APERTURE LIST*
%ADD10C,0.150000*%
%ADD11C,0.120000*%
%ADD12C,0.203200*%
G04 APERTURE END LIST*
D10*
X134620000Y-146050000D02*
X134620000Y-179070000D01*
X134620000Y-146050000D02*
X139700000Y-146050000D01*
X139700000Y-146050000D02*
X139700000Y-179070000D01*
X134620000Y-179070000D02*
X139700000Y-179070000D01*
X134620000Y-140335000D02*
X139700000Y-140335000D01*
X139700000Y-107315000D02*
X139700000Y-140335000D01*
X134620000Y-107315000D02*
X139700000Y-107315000D01*
X134620000Y-107315000D02*
X134620000Y-140335000D01*
X64770000Y-71120000D02*
X64770000Y-38100000D01*
X64770000Y-71120000D02*
X59690000Y-71120000D01*
X59690000Y-71120000D02*
X59690000Y-38100000D01*
X64770000Y-38100000D02*
X59690000Y-38100000D01*
X64770000Y-76835000D02*
X59690000Y-76835000D01*
X59690000Y-109855000D02*
X59690000Y-76835000D01*
X64770000Y-109855000D02*
X59690000Y-109855000D01*
X64770000Y-109855000D02*
X64770000Y-76835000D01*
D11*
X77530000Y-109915000D02*
X76200000Y-109915000D01*
X77530000Y-108585000D02*
X77530000Y-109915000D01*
X74930000Y-109915000D02*
X72330000Y-109915000D01*
X74930000Y-107315000D02*
X74930000Y-109915000D01*
X77530000Y-107315000D02*
X74930000Y-107315000D01*
X72330000Y-109915000D02*
X72330000Y-58995000D01*
X77530000Y-107315000D02*
X77530000Y-58995000D01*
X77530000Y-58995000D02*
X72330000Y-58995000D01*
D10*
X71430000Y-113455000D02*
G75*
G03X74930000Y-116955000I3500000J0D01*
G01*
X123930000Y-116955000D02*
G75*
G03X127430000Y-113455000I0J3500000D01*
G01*
X123930000Y-116955000D02*
X74930000Y-116955000D01*
X124430000Y-31955000D02*
X74430000Y-31955000D01*
X74430000Y-31955000D02*
G75*
G03X71430000Y-34955000I0J-3000000D01*
G01*
X127430000Y-34955000D02*
G75*
G03X124430000Y-31955000I-3000000J0D01*
G01*
X127430000Y-34955000D02*
X127430000Y-113455000D01*
X71430000Y-34955000D02*
X71430000Y-113455000D01*
D11*
X60835000Y-123460000D02*
X60835000Y-125460000D01*
X67435000Y-123460000D02*
X67435000Y-125460000D01*
X63135000Y-127760000D02*
X65135000Y-127760000D01*
X63135000Y-121160000D02*
X65135000Y-121160000D01*
X78240000Y-138010000D02*
X79240000Y-138010000D01*
X79240000Y-136310000D02*
X78240000Y-136310000D01*
X108212000Y-141820000D02*
X109212000Y-141820000D01*
X109212000Y-140120000D02*
X108212000Y-140120000D01*
X120388000Y-140120000D02*
X119388000Y-140120000D01*
X119388000Y-141820000D02*
X120388000Y-141820000D01*
X103640000Y-141820000D02*
X104640000Y-141820000D01*
X104640000Y-140120000D02*
X103640000Y-140120000D01*
X115435000Y-140120000D02*
X114435000Y-140120000D01*
X114435000Y-141820000D02*
X115435000Y-141820000D01*
D10*
X85270340Y-153885900D02*
X85270340Y-139484100D01*
X69669660Y-153885900D02*
X85270340Y-153885900D01*
X69669660Y-139484100D02*
X69669660Y-153885900D01*
X85270340Y-139484100D02*
X69669660Y-139484100D01*
X82969100Y-161383980D02*
X82969100Y-153885900D01*
X71970900Y-161383980D02*
X82969100Y-161383980D01*
X71970900Y-153885900D02*
X71970900Y-161383980D01*
X82270600Y-173385480D02*
X82270600Y-161383980D01*
X72669400Y-173385480D02*
X82270600Y-173385480D01*
X72669400Y-161383980D02*
X72669400Y-173385480D01*
X78470760Y-169384980D02*
G75*
G03X78470760Y-169384980I-1000760J0D01*
G01*
X82969100Y-154485340D02*
X71970900Y-155285440D01*
X82969100Y-155285440D02*
X71970900Y-156085540D01*
X82969100Y-156085540D02*
X71970900Y-156885640D01*
X82969100Y-156885640D02*
X71970900Y-157685740D01*
X82969100Y-157685740D02*
X71970900Y-158485840D01*
X82969100Y-158485840D02*
X71970900Y-159285940D01*
D11*
X88995000Y-155795000D02*
X88995000Y-149385000D01*
X97695000Y-154565000D02*
X88995000Y-154565000D01*
X97695000Y-149385000D02*
X97695000Y-155795000D01*
X88995000Y-149385000D02*
X97695000Y-149385000D01*
X88995000Y-155795000D02*
X97695000Y-155795000D01*
X60835000Y-140605000D02*
X60835000Y-142605000D01*
X67435000Y-140605000D02*
X67435000Y-142605000D01*
X63135000Y-144905000D02*
X65135000Y-144905000D01*
X63135000Y-138305000D02*
X65135000Y-138305000D01*
X88205000Y-128845000D02*
X89535000Y-128845000D01*
X88205000Y-130175000D02*
X88205000Y-128845000D01*
X88205000Y-131445000D02*
X90865000Y-131445000D01*
X90865000Y-131445000D02*
X90865000Y-134045000D01*
X88205000Y-131445000D02*
X88205000Y-134045000D01*
X88205000Y-134045000D02*
X90865000Y-134045000D01*
X102175000Y-153095000D02*
X102175000Y-151765000D01*
X103505000Y-153095000D02*
X102175000Y-153095000D01*
X104775000Y-153095000D02*
X104775000Y-150435000D01*
X104775000Y-150435000D02*
X114995000Y-150435000D01*
X104775000Y-153095000D02*
X114995000Y-153095000D01*
X114995000Y-153095000D02*
X114995000Y-150435000D01*
X130235000Y-153095000D02*
X130235000Y-150435000D01*
X120015000Y-153095000D02*
X130235000Y-153095000D01*
X120015000Y-150435000D02*
X130235000Y-150435000D01*
X120015000Y-153095000D02*
X120015000Y-150435000D01*
X118745000Y-153095000D02*
X117415000Y-153095000D01*
X117415000Y-153095000D02*
X117415000Y-151765000D01*
X88205000Y-123765000D02*
X89535000Y-123765000D01*
X88205000Y-125095000D02*
X88205000Y-123765000D01*
X88205000Y-126365000D02*
X90865000Y-126365000D01*
X90865000Y-126365000D02*
X90865000Y-126425000D01*
X88205000Y-126365000D02*
X88205000Y-126425000D01*
X88205000Y-126425000D02*
X90865000Y-126425000D01*
X102000000Y-139355000D02*
X102000000Y-133345000D01*
X108820000Y-137105000D02*
X108820000Y-133345000D01*
X102000000Y-133345000D02*
X103260000Y-133345000D01*
X108820000Y-133345000D02*
X107560000Y-133345000D01*
X119615000Y-133345000D02*
X118355000Y-133345000D01*
X112795000Y-133345000D02*
X114055000Y-133345000D01*
X119615000Y-137105000D02*
X119615000Y-133345000D01*
X112795000Y-139355000D02*
X112795000Y-133345000D01*
D12*
X128759857Y-141774333D02*
X129243666Y-141774333D01*
X128663095Y-142064619D02*
X129001761Y-141048619D01*
X129340428Y-142064619D01*
X129679095Y-142064619D02*
X129679095Y-141048619D01*
X129921000Y-141048619D01*
X130066142Y-141097000D01*
X130162904Y-141193761D01*
X130211285Y-141290523D01*
X130259666Y-141484047D01*
X130259666Y-141629190D01*
X130211285Y-141822714D01*
X130162904Y-141919476D01*
X130066142Y-142016238D01*
X129921000Y-142064619D01*
X129679095Y-142064619D01*
X130743476Y-142064619D02*
X130937000Y-142064619D01*
X131033761Y-142016238D01*
X131082142Y-141967857D01*
X131178904Y-141822714D01*
X131227285Y-141629190D01*
X131227285Y-141242142D01*
X131178904Y-141145380D01*
X131130523Y-141097000D01*
X131033761Y-141048619D01*
X130840238Y-141048619D01*
X130743476Y-141097000D01*
X130695095Y-141145380D01*
X130646714Y-141242142D01*
X130646714Y-141484047D01*
X130695095Y-141580809D01*
X130743476Y-141629190D01*
X130840238Y-141677571D01*
X131033761Y-141677571D01*
X131130523Y-141629190D01*
X131178904Y-141580809D01*
X131227285Y-141484047D01*
X131711095Y-142064619D02*
X131904619Y-142064619D01*
X132001380Y-142016238D01*
X132049761Y-141967857D01*
X132146523Y-141822714D01*
X132194904Y-141629190D01*
X132194904Y-141242142D01*
X132146523Y-141145380D01*
X132098142Y-141097000D01*
X132001380Y-141048619D01*
X131807857Y-141048619D01*
X131711095Y-141097000D01*
X131662714Y-141145380D01*
X131614333Y-141242142D01*
X131614333Y-141484047D01*
X131662714Y-141580809D01*
X131711095Y-141629190D01*
X131807857Y-141677571D01*
X132001380Y-141677571D01*
X132098142Y-141629190D01*
X132146523Y-141580809D01*
X132194904Y-141484047D01*
X133114142Y-141048619D02*
X132630333Y-141048619D01*
X132581952Y-141532428D01*
X132630333Y-141484047D01*
X132727095Y-141435666D01*
X132969000Y-141435666D01*
X133065761Y-141484047D01*
X133114142Y-141532428D01*
X133162523Y-141629190D01*
X133162523Y-141871095D01*
X133114142Y-141967857D01*
X133065761Y-142016238D01*
X132969000Y-142064619D01*
X132727095Y-142064619D01*
X132630333Y-142016238D01*
X132581952Y-141967857D01*
X133646333Y-142064619D02*
X133839857Y-142064619D01*
X133936619Y-142016238D01*
X133985000Y-141967857D01*
X134081761Y-141822714D01*
X134130142Y-141629190D01*
X134130142Y-141242142D01*
X134081761Y-141145380D01*
X134033380Y-141097000D01*
X133936619Y-141048619D01*
X133743095Y-141048619D01*
X133646333Y-141097000D01*
X133597952Y-141145380D01*
X133549571Y-141242142D01*
X133549571Y-141484047D01*
X133597952Y-141580809D01*
X133646333Y-141629190D01*
X133743095Y-141677571D01*
X133936619Y-141677571D01*
X134033380Y-141629190D01*
X134081761Y-141580809D01*
X134130142Y-141484047D01*
X135291285Y-141000238D02*
X134420428Y-142306523D01*
X135629952Y-142064619D02*
X135629952Y-141048619D01*
X136017000Y-141048619D01*
X136113761Y-141097000D01*
X136162142Y-141145380D01*
X136210523Y-141242142D01*
X136210523Y-141387285D01*
X136162142Y-141484047D01*
X136113761Y-141532428D01*
X136017000Y-141580809D01*
X135629952Y-141580809D01*
X137226523Y-141967857D02*
X137178142Y-142016238D01*
X137033000Y-142064619D01*
X136936238Y-142064619D01*
X136791095Y-142016238D01*
X136694333Y-141919476D01*
X136645952Y-141822714D01*
X136597571Y-141629190D01*
X136597571Y-141484047D01*
X136645952Y-141290523D01*
X136694333Y-141193761D01*
X136791095Y-141097000D01*
X136936238Y-141048619D01*
X137033000Y-141048619D01*
X137178142Y-141097000D01*
X137226523Y-141145380D01*
X138000619Y-141532428D02*
X138145761Y-141580809D01*
X138194142Y-141629190D01*
X138242523Y-141725952D01*
X138242523Y-141871095D01*
X138194142Y-141967857D01*
X138145761Y-142016238D01*
X138049000Y-142064619D01*
X137661952Y-142064619D01*
X137661952Y-141048619D01*
X138000619Y-141048619D01*
X138097380Y-141097000D01*
X138145761Y-141145380D01*
X138194142Y-141242142D01*
X138194142Y-141338904D01*
X138145761Y-141435666D01*
X138097380Y-141484047D01*
X138000619Y-141532428D01*
X137661952Y-141532428D01*
X138581190Y-141048619D02*
X139258523Y-141048619D01*
X138581190Y-142064619D01*
X139258523Y-142064619D01*
D10*
X129040238Y-108989761D02*
X129183095Y-109037380D01*
X129421190Y-109037380D01*
X129516428Y-108989761D01*
X129564047Y-108942142D01*
X129611666Y-108846904D01*
X129611666Y-108751666D01*
X129564047Y-108656428D01*
X129516428Y-108608809D01*
X129421190Y-108561190D01*
X129230714Y-108513571D01*
X129135476Y-108465952D01*
X129087857Y-108418333D01*
X129040238Y-108323095D01*
X129040238Y-108227857D01*
X129087857Y-108132619D01*
X129135476Y-108085000D01*
X129230714Y-108037380D01*
X129468809Y-108037380D01*
X129611666Y-108085000D01*
X130040238Y-109037380D02*
X130040238Y-108037380D01*
X130278333Y-108037380D01*
X130421190Y-108085000D01*
X130516428Y-108180238D01*
X130564047Y-108275476D01*
X130611666Y-108465952D01*
X130611666Y-108608809D01*
X130564047Y-108799285D01*
X130516428Y-108894523D01*
X130421190Y-108989761D01*
X130278333Y-109037380D01*
X130040238Y-109037380D01*
X131040238Y-109037380D02*
X131040238Y-108037380D01*
X131706904Y-108037380D02*
X131897380Y-108037380D01*
X131992619Y-108085000D01*
X132087857Y-108180238D01*
X132135476Y-108370714D01*
X132135476Y-108704047D01*
X132087857Y-108894523D01*
X131992619Y-108989761D01*
X131897380Y-109037380D01*
X131706904Y-109037380D01*
X131611666Y-108989761D01*
X131516428Y-108894523D01*
X131468809Y-108704047D01*
X131468809Y-108370714D01*
X131516428Y-108180238D01*
X131611666Y-108085000D01*
X131706904Y-108037380D01*
X132325952Y-109132619D02*
X133087857Y-109132619D01*
X133849761Y-109037380D02*
X133278333Y-109037380D01*
X133564047Y-109037380D02*
X133564047Y-108037380D01*
X133468809Y-108180238D01*
X133373571Y-108275476D01*
X133278333Y-108323095D01*
X129040238Y-111529761D02*
X129183095Y-111577380D01*
X129421190Y-111577380D01*
X129516428Y-111529761D01*
X129564047Y-111482142D01*
X129611666Y-111386904D01*
X129611666Y-111291666D01*
X129564047Y-111196428D01*
X129516428Y-111148809D01*
X129421190Y-111101190D01*
X129230714Y-111053571D01*
X129135476Y-111005952D01*
X129087857Y-110958333D01*
X129040238Y-110863095D01*
X129040238Y-110767857D01*
X129087857Y-110672619D01*
X129135476Y-110625000D01*
X129230714Y-110577380D01*
X129468809Y-110577380D01*
X129611666Y-110625000D01*
X130040238Y-111577380D02*
X130040238Y-110577380D01*
X130278333Y-110577380D01*
X130421190Y-110625000D01*
X130516428Y-110720238D01*
X130564047Y-110815476D01*
X130611666Y-111005952D01*
X130611666Y-111148809D01*
X130564047Y-111339285D01*
X130516428Y-111434523D01*
X130421190Y-111529761D01*
X130278333Y-111577380D01*
X130040238Y-111577380D01*
X131040238Y-111577380D02*
X131040238Y-110577380D01*
X131706904Y-110577380D02*
X131897380Y-110577380D01*
X131992619Y-110625000D01*
X132087857Y-110720238D01*
X132135476Y-110910714D01*
X132135476Y-111244047D01*
X132087857Y-111434523D01*
X131992619Y-111529761D01*
X131897380Y-111577380D01*
X131706904Y-111577380D01*
X131611666Y-111529761D01*
X131516428Y-111434523D01*
X131468809Y-111244047D01*
X131468809Y-110910714D01*
X131516428Y-110720238D01*
X131611666Y-110625000D01*
X131706904Y-110577380D01*
X132325952Y-111672619D02*
X133087857Y-111672619D01*
X133278333Y-110672619D02*
X133325952Y-110625000D01*
X133421190Y-110577380D01*
X133659285Y-110577380D01*
X133754523Y-110625000D01*
X133802142Y-110672619D01*
X133849761Y-110767857D01*
X133849761Y-110863095D01*
X133802142Y-111005952D01*
X133230714Y-111577380D01*
X133849761Y-111577380D01*
X129040238Y-114069761D02*
X129183095Y-114117380D01*
X129421190Y-114117380D01*
X129516428Y-114069761D01*
X129564047Y-114022142D01*
X129611666Y-113926904D01*
X129611666Y-113831666D01*
X129564047Y-113736428D01*
X129516428Y-113688809D01*
X129421190Y-113641190D01*
X129230714Y-113593571D01*
X129135476Y-113545952D01*
X129087857Y-113498333D01*
X129040238Y-113403095D01*
X129040238Y-113307857D01*
X129087857Y-113212619D01*
X129135476Y-113165000D01*
X129230714Y-113117380D01*
X129468809Y-113117380D01*
X129611666Y-113165000D01*
X130040238Y-114117380D02*
X130040238Y-113117380D01*
X130278333Y-113117380D01*
X130421190Y-113165000D01*
X130516428Y-113260238D01*
X130564047Y-113355476D01*
X130611666Y-113545952D01*
X130611666Y-113688809D01*
X130564047Y-113879285D01*
X130516428Y-113974523D01*
X130421190Y-114069761D01*
X130278333Y-114117380D01*
X130040238Y-114117380D01*
X131040238Y-114117380D02*
X131040238Y-113117380D01*
X131706904Y-113117380D02*
X131897380Y-113117380D01*
X131992619Y-113165000D01*
X132087857Y-113260238D01*
X132135476Y-113450714D01*
X132135476Y-113784047D01*
X132087857Y-113974523D01*
X131992619Y-114069761D01*
X131897380Y-114117380D01*
X131706904Y-114117380D01*
X131611666Y-114069761D01*
X131516428Y-113974523D01*
X131468809Y-113784047D01*
X131468809Y-113450714D01*
X131516428Y-113260238D01*
X131611666Y-113165000D01*
X131706904Y-113117380D01*
X132325952Y-114212619D02*
X133087857Y-114212619D01*
X133230714Y-113117380D02*
X133849761Y-113117380D01*
X133516428Y-113498333D01*
X133659285Y-113498333D01*
X133754523Y-113545952D01*
X133802142Y-113593571D01*
X133849761Y-113688809D01*
X133849761Y-113926904D01*
X133802142Y-114022142D01*
X133754523Y-114069761D01*
X133659285Y-114117380D01*
X133373571Y-114117380D01*
X133278333Y-114069761D01*
X133230714Y-114022142D01*
X127500476Y-116657380D02*
X127500476Y-115657380D01*
X127881428Y-115657380D01*
X127976666Y-115705000D01*
X128024285Y-115752619D01*
X128071904Y-115847857D01*
X128071904Y-115990714D01*
X128024285Y-116085952D01*
X127976666Y-116133571D01*
X127881428Y-116181190D01*
X127500476Y-116181190D01*
X128405238Y-115657380D02*
X128643333Y-116657380D01*
X128833809Y-115943095D01*
X129024285Y-116657380D01*
X129262380Y-115657380D01*
X130214761Y-116657380D02*
X129881428Y-116181190D01*
X129643333Y-116657380D02*
X129643333Y-115657380D01*
X130024285Y-115657380D01*
X130119523Y-115705000D01*
X130167142Y-115752619D01*
X130214761Y-115847857D01*
X130214761Y-115990714D01*
X130167142Y-116085952D01*
X130119523Y-116133571D01*
X130024285Y-116181190D01*
X129643333Y-116181190D01*
X130405238Y-116752619D02*
X131167142Y-116752619D01*
X131405238Y-116657380D02*
X131405238Y-115657380D01*
X131643333Y-115657380D01*
X131786190Y-115705000D01*
X131881428Y-115800238D01*
X131929047Y-115895476D01*
X131976666Y-116085952D01*
X131976666Y-116228809D01*
X131929047Y-116419285D01*
X131881428Y-116514523D01*
X131786190Y-116609761D01*
X131643333Y-116657380D01*
X131405238Y-116657380D01*
X132310000Y-115657380D02*
X132548095Y-116657380D01*
X132738571Y-115943095D01*
X132929047Y-116657380D01*
X133167142Y-115657380D01*
X133548095Y-116657380D02*
X133548095Y-115657380D01*
X134119523Y-116657380D01*
X134119523Y-115657380D01*
X129992619Y-119197380D02*
X129659285Y-118721190D01*
X129421190Y-119197380D02*
X129421190Y-118197380D01*
X129802142Y-118197380D01*
X129897380Y-118245000D01*
X129945000Y-118292619D01*
X129992619Y-118387857D01*
X129992619Y-118530714D01*
X129945000Y-118625952D01*
X129897380Y-118673571D01*
X129802142Y-118721190D01*
X129421190Y-118721190D01*
X130421190Y-118673571D02*
X130754523Y-118673571D01*
X130897380Y-119197380D02*
X130421190Y-119197380D01*
X130421190Y-118197380D01*
X130897380Y-118197380D01*
X131278333Y-119149761D02*
X131421190Y-119197380D01*
X131659285Y-119197380D01*
X131754523Y-119149761D01*
X131802142Y-119102142D01*
X131849761Y-119006904D01*
X131849761Y-118911666D01*
X131802142Y-118816428D01*
X131754523Y-118768809D01*
X131659285Y-118721190D01*
X131468809Y-118673571D01*
X131373571Y-118625952D01*
X131325952Y-118578333D01*
X131278333Y-118483095D01*
X131278333Y-118387857D01*
X131325952Y-118292619D01*
X131373571Y-118245000D01*
X131468809Y-118197380D01*
X131706904Y-118197380D01*
X131849761Y-118245000D01*
X132278333Y-118673571D02*
X132611666Y-118673571D01*
X132754523Y-119197380D02*
X132278333Y-119197380D01*
X132278333Y-118197380D01*
X132754523Y-118197380D01*
X133040238Y-118197380D02*
X133611666Y-118197380D01*
X133325952Y-119197380D02*
X133325952Y-118197380D01*
X130389523Y-121689761D02*
X130532380Y-121737380D01*
X130770476Y-121737380D01*
X130865714Y-121689761D01*
X130913333Y-121642142D01*
X130960952Y-121546904D01*
X130960952Y-121451666D01*
X130913333Y-121356428D01*
X130865714Y-121308809D01*
X130770476Y-121261190D01*
X130580000Y-121213571D01*
X130484761Y-121165952D01*
X130437142Y-121118333D01*
X130389523Y-121023095D01*
X130389523Y-120927857D01*
X130437142Y-120832619D01*
X130484761Y-120785000D01*
X130580000Y-120737380D01*
X130818095Y-120737380D01*
X130960952Y-120785000D01*
X131960952Y-121642142D02*
X131913333Y-121689761D01*
X131770476Y-121737380D01*
X131675238Y-121737380D01*
X131532380Y-121689761D01*
X131437142Y-121594523D01*
X131389523Y-121499285D01*
X131341904Y-121308809D01*
X131341904Y-121165952D01*
X131389523Y-120975476D01*
X131437142Y-120880238D01*
X131532380Y-120785000D01*
X131675238Y-120737380D01*
X131770476Y-120737380D01*
X131913333Y-120785000D01*
X131960952Y-120832619D01*
X132865714Y-121737380D02*
X132389523Y-121737380D01*
X132389523Y-120737380D01*
X133199047Y-121737380D02*
X133199047Y-120737380D01*
X133770476Y-121737380D02*
X133341904Y-121165952D01*
X133770476Y-120737380D02*
X133199047Y-121308809D01*
X132048333Y-124182142D02*
X132000714Y-124229761D01*
X131857857Y-124277380D01*
X131762619Y-124277380D01*
X131619761Y-124229761D01*
X131524523Y-124134523D01*
X131476904Y-124039285D01*
X131429285Y-123848809D01*
X131429285Y-123705952D01*
X131476904Y-123515476D01*
X131524523Y-123420238D01*
X131619761Y-123325000D01*
X131762619Y-123277380D01*
X131857857Y-123277380D01*
X132000714Y-123325000D01*
X132048333Y-123372619D01*
X132429285Y-124229761D02*
X132572142Y-124277380D01*
X132810238Y-124277380D01*
X132905476Y-124229761D01*
X132953095Y-124182142D01*
X133000714Y-124086904D01*
X133000714Y-123991666D01*
X132953095Y-123896428D01*
X132905476Y-123848809D01*
X132810238Y-123801190D01*
X132619761Y-123753571D01*
X132524523Y-123705952D01*
X132476904Y-123658333D01*
X132429285Y-123563095D01*
X132429285Y-123467857D01*
X132476904Y-123372619D01*
X132524523Y-123325000D01*
X132619761Y-123277380D01*
X132857857Y-123277380D01*
X133000714Y-123325000D01*
X133762619Y-123753571D02*
X133905476Y-123801190D01*
X133953095Y-123848809D01*
X134000714Y-123944047D01*
X134000714Y-124086904D01*
X133953095Y-124182142D01*
X133905476Y-124229761D01*
X133810238Y-124277380D01*
X133429285Y-124277380D01*
X133429285Y-123277380D01*
X133762619Y-123277380D01*
X133857857Y-123325000D01*
X133905476Y-123372619D01*
X133953095Y-123467857D01*
X133953095Y-123563095D01*
X133905476Y-123658333D01*
X133857857Y-123705952D01*
X133762619Y-123753571D01*
X133429285Y-123753571D01*
X126484523Y-126817380D02*
X126484523Y-125817380D01*
X127151190Y-125817380D02*
X127341666Y-125817380D01*
X127436904Y-125865000D01*
X127532142Y-125960238D01*
X127579761Y-126150714D01*
X127579761Y-126484047D01*
X127532142Y-126674523D01*
X127436904Y-126769761D01*
X127341666Y-126817380D01*
X127151190Y-126817380D01*
X127055952Y-126769761D01*
X126960714Y-126674523D01*
X126913095Y-126484047D01*
X126913095Y-126150714D01*
X126960714Y-125960238D01*
X127055952Y-125865000D01*
X127151190Y-125817380D01*
X127770238Y-126912619D02*
X128532142Y-126912619D01*
X128770238Y-125817380D02*
X128770238Y-126626904D01*
X128817857Y-126722142D01*
X128865476Y-126769761D01*
X128960714Y-126817380D01*
X129151190Y-126817380D01*
X129246428Y-126769761D01*
X129294047Y-126722142D01*
X129341666Y-126626904D01*
X129341666Y-125817380D01*
X129817857Y-126817380D02*
X129817857Y-125817380D01*
X130198809Y-125817380D01*
X130294047Y-125865000D01*
X130341666Y-125912619D01*
X130389285Y-126007857D01*
X130389285Y-126150714D01*
X130341666Y-126245952D01*
X130294047Y-126293571D01*
X130198809Y-126341190D01*
X129817857Y-126341190D01*
X130817857Y-126817380D02*
X130817857Y-125817380D01*
X131055952Y-125817380D01*
X131198809Y-125865000D01*
X131294047Y-125960238D01*
X131341666Y-126055476D01*
X131389285Y-126245952D01*
X131389285Y-126388809D01*
X131341666Y-126579285D01*
X131294047Y-126674523D01*
X131198809Y-126769761D01*
X131055952Y-126817380D01*
X130817857Y-126817380D01*
X131770238Y-126531666D02*
X132246428Y-126531666D01*
X131675000Y-126817380D02*
X132008333Y-125817380D01*
X132341666Y-126817380D01*
X132532142Y-125817380D02*
X133103571Y-125817380D01*
X132817857Y-126817380D02*
X132817857Y-125817380D01*
X133436904Y-126293571D02*
X133770238Y-126293571D01*
X133913095Y-126817380D02*
X133436904Y-126817380D01*
X133436904Y-125817380D01*
X133913095Y-125817380D01*
X131976904Y-129357380D02*
X131976904Y-128357380D01*
X132357857Y-128357380D01*
X132453095Y-128405000D01*
X132500714Y-128452619D01*
X132548333Y-128547857D01*
X132548333Y-128690714D01*
X132500714Y-128785952D01*
X132453095Y-128833571D01*
X132357857Y-128881190D01*
X131976904Y-128881190D01*
X132881666Y-128357380D02*
X133500714Y-128357380D01*
X133167380Y-128738333D01*
X133310238Y-128738333D01*
X133405476Y-128785952D01*
X133453095Y-128833571D01*
X133500714Y-128928809D01*
X133500714Y-129166904D01*
X133453095Y-129262142D01*
X133405476Y-129309761D01*
X133310238Y-129357380D01*
X133024523Y-129357380D01*
X132929285Y-129309761D01*
X132881666Y-129262142D01*
X131976904Y-131897380D02*
X131976904Y-130897380D01*
X132357857Y-130897380D01*
X132453095Y-130945000D01*
X132500714Y-130992619D01*
X132548333Y-131087857D01*
X132548333Y-131230714D01*
X132500714Y-131325952D01*
X132453095Y-131373571D01*
X132357857Y-131421190D01*
X131976904Y-131421190D01*
X132929285Y-130992619D02*
X132976904Y-130945000D01*
X133072142Y-130897380D01*
X133310238Y-130897380D01*
X133405476Y-130945000D01*
X133453095Y-130992619D01*
X133500714Y-131087857D01*
X133500714Y-131183095D01*
X133453095Y-131325952D01*
X132881666Y-131897380D01*
X133500714Y-131897380D01*
X131976904Y-134437380D02*
X131976904Y-133437380D01*
X132357857Y-133437380D01*
X132453095Y-133485000D01*
X132500714Y-133532619D01*
X132548333Y-133627857D01*
X132548333Y-133770714D01*
X132500714Y-133865952D01*
X132453095Y-133913571D01*
X132357857Y-133961190D01*
X131976904Y-133961190D01*
X133500714Y-134437380D02*
X132929285Y-134437380D01*
X133215000Y-134437380D02*
X133215000Y-133437380D01*
X133119761Y-133580238D01*
X133024523Y-133675476D01*
X132929285Y-133723095D01*
X131976904Y-136977380D02*
X131976904Y-135977380D01*
X132357857Y-135977380D01*
X132453095Y-136025000D01*
X132500714Y-136072619D01*
X132548333Y-136167857D01*
X132548333Y-136310714D01*
X132500714Y-136405952D01*
X132453095Y-136453571D01*
X132357857Y-136501190D01*
X131976904Y-136501190D01*
X133167380Y-135977380D02*
X133262619Y-135977380D01*
X133357857Y-136025000D01*
X133405476Y-136072619D01*
X133453095Y-136167857D01*
X133500714Y-136358333D01*
X133500714Y-136596428D01*
X133453095Y-136786904D01*
X133405476Y-136882142D01*
X133357857Y-136929761D01*
X133262619Y-136977380D01*
X133167380Y-136977380D01*
X133072142Y-136929761D01*
X133024523Y-136882142D01*
X132976904Y-136786904D01*
X132929285Y-136596428D01*
X132929285Y-136358333D01*
X132976904Y-136167857D01*
X133024523Y-136072619D01*
X133072142Y-136025000D01*
X133167380Y-135977380D01*
X129040238Y-147724761D02*
X129183095Y-147772380D01*
X129421190Y-147772380D01*
X129516428Y-147724761D01*
X129564047Y-147677142D01*
X129611666Y-147581904D01*
X129611666Y-147486666D01*
X129564047Y-147391428D01*
X129516428Y-147343809D01*
X129421190Y-147296190D01*
X129230714Y-147248571D01*
X129135476Y-147200952D01*
X129087857Y-147153333D01*
X129040238Y-147058095D01*
X129040238Y-146962857D01*
X129087857Y-146867619D01*
X129135476Y-146820000D01*
X129230714Y-146772380D01*
X129468809Y-146772380D01*
X129611666Y-146820000D01*
X130040238Y-147772380D02*
X130040238Y-146772380D01*
X130278333Y-146772380D01*
X130421190Y-146820000D01*
X130516428Y-146915238D01*
X130564047Y-147010476D01*
X130611666Y-147200952D01*
X130611666Y-147343809D01*
X130564047Y-147534285D01*
X130516428Y-147629523D01*
X130421190Y-147724761D01*
X130278333Y-147772380D01*
X130040238Y-147772380D01*
X131040238Y-147772380D02*
X131040238Y-146772380D01*
X131706904Y-146772380D02*
X131897380Y-146772380D01*
X131992619Y-146820000D01*
X132087857Y-146915238D01*
X132135476Y-147105714D01*
X132135476Y-147439047D01*
X132087857Y-147629523D01*
X131992619Y-147724761D01*
X131897380Y-147772380D01*
X131706904Y-147772380D01*
X131611666Y-147724761D01*
X131516428Y-147629523D01*
X131468809Y-147439047D01*
X131468809Y-147105714D01*
X131516428Y-146915238D01*
X131611666Y-146820000D01*
X131706904Y-146772380D01*
X132325952Y-147867619D02*
X133087857Y-147867619D01*
X133516428Y-146772380D02*
X133611666Y-146772380D01*
X133706904Y-146820000D01*
X133754523Y-146867619D01*
X133802142Y-146962857D01*
X133849761Y-147153333D01*
X133849761Y-147391428D01*
X133802142Y-147581904D01*
X133754523Y-147677142D01*
X133706904Y-147724761D01*
X133611666Y-147772380D01*
X133516428Y-147772380D01*
X133421190Y-147724761D01*
X133373571Y-147677142D01*
X133325952Y-147581904D01*
X133278333Y-147391428D01*
X133278333Y-147153333D01*
X133325952Y-146962857D01*
X133373571Y-146867619D01*
X133421190Y-146820000D01*
X133516428Y-146772380D01*
D12*
X60179857Y-75734333D02*
X60663666Y-75734333D01*
X60083095Y-76024619D02*
X60421761Y-75008619D01*
X60760428Y-76024619D01*
X61099095Y-76024619D02*
X61099095Y-75008619D01*
X61341000Y-75008619D01*
X61486142Y-75057000D01*
X61582904Y-75153761D01*
X61631285Y-75250523D01*
X61679666Y-75444047D01*
X61679666Y-75589190D01*
X61631285Y-75782714D01*
X61582904Y-75879476D01*
X61486142Y-75976238D01*
X61341000Y-76024619D01*
X61099095Y-76024619D01*
X62163476Y-76024619D02*
X62357000Y-76024619D01*
X62453761Y-75976238D01*
X62502142Y-75927857D01*
X62598904Y-75782714D01*
X62647285Y-75589190D01*
X62647285Y-75202142D01*
X62598904Y-75105380D01*
X62550523Y-75057000D01*
X62453761Y-75008619D01*
X62260238Y-75008619D01*
X62163476Y-75057000D01*
X62115095Y-75105380D01*
X62066714Y-75202142D01*
X62066714Y-75444047D01*
X62115095Y-75540809D01*
X62163476Y-75589190D01*
X62260238Y-75637571D01*
X62453761Y-75637571D01*
X62550523Y-75589190D01*
X62598904Y-75540809D01*
X62647285Y-75444047D01*
X63131095Y-76024619D02*
X63324619Y-76024619D01*
X63421380Y-75976238D01*
X63469761Y-75927857D01*
X63566523Y-75782714D01*
X63614904Y-75589190D01*
X63614904Y-75202142D01*
X63566523Y-75105380D01*
X63518142Y-75057000D01*
X63421380Y-75008619D01*
X63227857Y-75008619D01*
X63131095Y-75057000D01*
X63082714Y-75105380D01*
X63034333Y-75202142D01*
X63034333Y-75444047D01*
X63082714Y-75540809D01*
X63131095Y-75589190D01*
X63227857Y-75637571D01*
X63421380Y-75637571D01*
X63518142Y-75589190D01*
X63566523Y-75540809D01*
X63614904Y-75444047D01*
X64534142Y-75008619D02*
X64050333Y-75008619D01*
X64001952Y-75492428D01*
X64050333Y-75444047D01*
X64147095Y-75395666D01*
X64389000Y-75395666D01*
X64485761Y-75444047D01*
X64534142Y-75492428D01*
X64582523Y-75589190D01*
X64582523Y-75831095D01*
X64534142Y-75927857D01*
X64485761Y-75976238D01*
X64389000Y-76024619D01*
X64147095Y-76024619D01*
X64050333Y-75976238D01*
X64001952Y-75927857D01*
X65066333Y-76024619D02*
X65259857Y-76024619D01*
X65356619Y-75976238D01*
X65405000Y-75927857D01*
X65501761Y-75782714D01*
X65550142Y-75589190D01*
X65550142Y-75202142D01*
X65501761Y-75105380D01*
X65453380Y-75057000D01*
X65356619Y-75008619D01*
X65163095Y-75008619D01*
X65066333Y-75057000D01*
X65017952Y-75105380D01*
X64969571Y-75202142D01*
X64969571Y-75444047D01*
X65017952Y-75540809D01*
X65066333Y-75589190D01*
X65163095Y-75637571D01*
X65356619Y-75637571D01*
X65453380Y-75589190D01*
X65501761Y-75540809D01*
X65550142Y-75444047D01*
X66711285Y-74960238D02*
X65840428Y-76266523D01*
X67049952Y-76024619D02*
X67049952Y-75008619D01*
X67437000Y-75008619D01*
X67533761Y-75057000D01*
X67582142Y-75105380D01*
X67630523Y-75202142D01*
X67630523Y-75347285D01*
X67582142Y-75444047D01*
X67533761Y-75492428D01*
X67437000Y-75540809D01*
X67049952Y-75540809D01*
X68646523Y-75927857D02*
X68598142Y-75976238D01*
X68453000Y-76024619D01*
X68356238Y-76024619D01*
X68211095Y-75976238D01*
X68114333Y-75879476D01*
X68065952Y-75782714D01*
X68017571Y-75589190D01*
X68017571Y-75444047D01*
X68065952Y-75250523D01*
X68114333Y-75153761D01*
X68211095Y-75057000D01*
X68356238Y-75008619D01*
X68453000Y-75008619D01*
X68598142Y-75057000D01*
X68646523Y-75105380D01*
X69420619Y-75492428D02*
X69565761Y-75540809D01*
X69614142Y-75589190D01*
X69662523Y-75685952D01*
X69662523Y-75831095D01*
X69614142Y-75927857D01*
X69565761Y-75976238D01*
X69469000Y-76024619D01*
X69081952Y-76024619D01*
X69081952Y-75008619D01*
X69420619Y-75008619D01*
X69517380Y-75057000D01*
X69565761Y-75105380D01*
X69614142Y-75202142D01*
X69614142Y-75298904D01*
X69565761Y-75395666D01*
X69517380Y-75444047D01*
X69420619Y-75492428D01*
X69081952Y-75492428D01*
X70001190Y-75008619D02*
X70678523Y-75008619D01*
X70001190Y-76024619D01*
X70678523Y-76024619D01*
D10*
X65540238Y-108989761D02*
X65683095Y-109037380D01*
X65921190Y-109037380D01*
X66016428Y-108989761D01*
X66064047Y-108942142D01*
X66111666Y-108846904D01*
X66111666Y-108751666D01*
X66064047Y-108656428D01*
X66016428Y-108608809D01*
X65921190Y-108561190D01*
X65730714Y-108513571D01*
X65635476Y-108465952D01*
X65587857Y-108418333D01*
X65540238Y-108323095D01*
X65540238Y-108227857D01*
X65587857Y-108132619D01*
X65635476Y-108085000D01*
X65730714Y-108037380D01*
X65968809Y-108037380D01*
X66111666Y-108085000D01*
X66540238Y-109037380D02*
X66540238Y-108037380D01*
X66778333Y-108037380D01*
X66921190Y-108085000D01*
X67016428Y-108180238D01*
X67064047Y-108275476D01*
X67111666Y-108465952D01*
X67111666Y-108608809D01*
X67064047Y-108799285D01*
X67016428Y-108894523D01*
X66921190Y-108989761D01*
X66778333Y-109037380D01*
X66540238Y-109037380D01*
X67540238Y-109037380D02*
X67540238Y-108037380D01*
X68206904Y-108037380D02*
X68397380Y-108037380D01*
X68492619Y-108085000D01*
X68587857Y-108180238D01*
X68635476Y-108370714D01*
X68635476Y-108704047D01*
X68587857Y-108894523D01*
X68492619Y-108989761D01*
X68397380Y-109037380D01*
X68206904Y-109037380D01*
X68111666Y-108989761D01*
X68016428Y-108894523D01*
X67968809Y-108704047D01*
X67968809Y-108370714D01*
X68016428Y-108180238D01*
X68111666Y-108085000D01*
X68206904Y-108037380D01*
X68825952Y-109132619D02*
X69587857Y-109132619D01*
X70349761Y-109037380D02*
X69778333Y-109037380D01*
X70064047Y-109037380D02*
X70064047Y-108037380D01*
X69968809Y-108180238D01*
X69873571Y-108275476D01*
X69778333Y-108323095D01*
X65540238Y-106449761D02*
X65683095Y-106497380D01*
X65921190Y-106497380D01*
X66016428Y-106449761D01*
X66064047Y-106402142D01*
X66111666Y-106306904D01*
X66111666Y-106211666D01*
X66064047Y-106116428D01*
X66016428Y-106068809D01*
X65921190Y-106021190D01*
X65730714Y-105973571D01*
X65635476Y-105925952D01*
X65587857Y-105878333D01*
X65540238Y-105783095D01*
X65540238Y-105687857D01*
X65587857Y-105592619D01*
X65635476Y-105545000D01*
X65730714Y-105497380D01*
X65968809Y-105497380D01*
X66111666Y-105545000D01*
X66540238Y-106497380D02*
X66540238Y-105497380D01*
X66778333Y-105497380D01*
X66921190Y-105545000D01*
X67016428Y-105640238D01*
X67064047Y-105735476D01*
X67111666Y-105925952D01*
X67111666Y-106068809D01*
X67064047Y-106259285D01*
X67016428Y-106354523D01*
X66921190Y-106449761D01*
X66778333Y-106497380D01*
X66540238Y-106497380D01*
X67540238Y-106497380D02*
X67540238Y-105497380D01*
X68206904Y-105497380D02*
X68397380Y-105497380D01*
X68492619Y-105545000D01*
X68587857Y-105640238D01*
X68635476Y-105830714D01*
X68635476Y-106164047D01*
X68587857Y-106354523D01*
X68492619Y-106449761D01*
X68397380Y-106497380D01*
X68206904Y-106497380D01*
X68111666Y-106449761D01*
X68016428Y-106354523D01*
X67968809Y-106164047D01*
X67968809Y-105830714D01*
X68016428Y-105640238D01*
X68111666Y-105545000D01*
X68206904Y-105497380D01*
X68825952Y-106592619D02*
X69587857Y-106592619D01*
X69778333Y-105592619D02*
X69825952Y-105545000D01*
X69921190Y-105497380D01*
X70159285Y-105497380D01*
X70254523Y-105545000D01*
X70302142Y-105592619D01*
X70349761Y-105687857D01*
X70349761Y-105783095D01*
X70302142Y-105925952D01*
X69730714Y-106497380D01*
X70349761Y-106497380D01*
X65540238Y-103909761D02*
X65683095Y-103957380D01*
X65921190Y-103957380D01*
X66016428Y-103909761D01*
X66064047Y-103862142D01*
X66111666Y-103766904D01*
X66111666Y-103671666D01*
X66064047Y-103576428D01*
X66016428Y-103528809D01*
X65921190Y-103481190D01*
X65730714Y-103433571D01*
X65635476Y-103385952D01*
X65587857Y-103338333D01*
X65540238Y-103243095D01*
X65540238Y-103147857D01*
X65587857Y-103052619D01*
X65635476Y-103005000D01*
X65730714Y-102957380D01*
X65968809Y-102957380D01*
X66111666Y-103005000D01*
X66540238Y-103957380D02*
X66540238Y-102957380D01*
X66778333Y-102957380D01*
X66921190Y-103005000D01*
X67016428Y-103100238D01*
X67064047Y-103195476D01*
X67111666Y-103385952D01*
X67111666Y-103528809D01*
X67064047Y-103719285D01*
X67016428Y-103814523D01*
X66921190Y-103909761D01*
X66778333Y-103957380D01*
X66540238Y-103957380D01*
X67540238Y-103957380D02*
X67540238Y-102957380D01*
X68206904Y-102957380D02*
X68397380Y-102957380D01*
X68492619Y-103005000D01*
X68587857Y-103100238D01*
X68635476Y-103290714D01*
X68635476Y-103624047D01*
X68587857Y-103814523D01*
X68492619Y-103909761D01*
X68397380Y-103957380D01*
X68206904Y-103957380D01*
X68111666Y-103909761D01*
X68016428Y-103814523D01*
X67968809Y-103624047D01*
X67968809Y-103290714D01*
X68016428Y-103100238D01*
X68111666Y-103005000D01*
X68206904Y-102957380D01*
X68825952Y-104052619D02*
X69587857Y-104052619D01*
X69730714Y-102957380D02*
X70349761Y-102957380D01*
X70016428Y-103338333D01*
X70159285Y-103338333D01*
X70254523Y-103385952D01*
X70302142Y-103433571D01*
X70349761Y-103528809D01*
X70349761Y-103766904D01*
X70302142Y-103862142D01*
X70254523Y-103909761D01*
X70159285Y-103957380D01*
X69873571Y-103957380D01*
X69778333Y-103909761D01*
X69730714Y-103862142D01*
X65270476Y-101417380D02*
X65270476Y-100417380D01*
X65651428Y-100417380D01*
X65746666Y-100465000D01*
X65794285Y-100512619D01*
X65841904Y-100607857D01*
X65841904Y-100750714D01*
X65794285Y-100845952D01*
X65746666Y-100893571D01*
X65651428Y-100941190D01*
X65270476Y-100941190D01*
X66175238Y-100417380D02*
X66413333Y-101417380D01*
X66603809Y-100703095D01*
X66794285Y-101417380D01*
X67032380Y-100417380D01*
X67984761Y-101417380D02*
X67651428Y-100941190D01*
X67413333Y-101417380D02*
X67413333Y-100417380D01*
X67794285Y-100417380D01*
X67889523Y-100465000D01*
X67937142Y-100512619D01*
X67984761Y-100607857D01*
X67984761Y-100750714D01*
X67937142Y-100845952D01*
X67889523Y-100893571D01*
X67794285Y-100941190D01*
X67413333Y-100941190D01*
X68175238Y-101512619D02*
X68937142Y-101512619D01*
X69175238Y-101417380D02*
X69175238Y-100417380D01*
X69413333Y-100417380D01*
X69556190Y-100465000D01*
X69651428Y-100560238D01*
X69699047Y-100655476D01*
X69746666Y-100845952D01*
X69746666Y-100988809D01*
X69699047Y-101179285D01*
X69651428Y-101274523D01*
X69556190Y-101369761D01*
X69413333Y-101417380D01*
X69175238Y-101417380D01*
X70080000Y-100417380D02*
X70318095Y-101417380D01*
X70508571Y-100703095D01*
X70699047Y-101417380D01*
X70937142Y-100417380D01*
X71318095Y-101417380D02*
X71318095Y-100417380D01*
X71889523Y-101417380D01*
X71889523Y-100417380D01*
X65857619Y-98877380D02*
X65524285Y-98401190D01*
X65286190Y-98877380D02*
X65286190Y-97877380D01*
X65667142Y-97877380D01*
X65762380Y-97925000D01*
X65810000Y-97972619D01*
X65857619Y-98067857D01*
X65857619Y-98210714D01*
X65810000Y-98305952D01*
X65762380Y-98353571D01*
X65667142Y-98401190D01*
X65286190Y-98401190D01*
X66286190Y-98353571D02*
X66619523Y-98353571D01*
X66762380Y-98877380D02*
X66286190Y-98877380D01*
X66286190Y-97877380D01*
X66762380Y-97877380D01*
X67143333Y-98829761D02*
X67286190Y-98877380D01*
X67524285Y-98877380D01*
X67619523Y-98829761D01*
X67667142Y-98782142D01*
X67714761Y-98686904D01*
X67714761Y-98591666D01*
X67667142Y-98496428D01*
X67619523Y-98448809D01*
X67524285Y-98401190D01*
X67333809Y-98353571D01*
X67238571Y-98305952D01*
X67190952Y-98258333D01*
X67143333Y-98163095D01*
X67143333Y-98067857D01*
X67190952Y-97972619D01*
X67238571Y-97925000D01*
X67333809Y-97877380D01*
X67571904Y-97877380D01*
X67714761Y-97925000D01*
X68143333Y-98353571D02*
X68476666Y-98353571D01*
X68619523Y-98877380D02*
X68143333Y-98877380D01*
X68143333Y-97877380D01*
X68619523Y-97877380D01*
X68905238Y-97877380D02*
X69476666Y-97877380D01*
X69190952Y-98877380D02*
X69190952Y-97877380D01*
X65619523Y-96289761D02*
X65762380Y-96337380D01*
X66000476Y-96337380D01*
X66095714Y-96289761D01*
X66143333Y-96242142D01*
X66190952Y-96146904D01*
X66190952Y-96051666D01*
X66143333Y-95956428D01*
X66095714Y-95908809D01*
X66000476Y-95861190D01*
X65810000Y-95813571D01*
X65714761Y-95765952D01*
X65667142Y-95718333D01*
X65619523Y-95623095D01*
X65619523Y-95527857D01*
X65667142Y-95432619D01*
X65714761Y-95385000D01*
X65810000Y-95337380D01*
X66048095Y-95337380D01*
X66190952Y-95385000D01*
X67190952Y-96242142D02*
X67143333Y-96289761D01*
X67000476Y-96337380D01*
X66905238Y-96337380D01*
X66762380Y-96289761D01*
X66667142Y-96194523D01*
X66619523Y-96099285D01*
X66571904Y-95908809D01*
X66571904Y-95765952D01*
X66619523Y-95575476D01*
X66667142Y-95480238D01*
X66762380Y-95385000D01*
X66905238Y-95337380D01*
X67000476Y-95337380D01*
X67143333Y-95385000D01*
X67190952Y-95432619D01*
X68095714Y-96337380D02*
X67619523Y-96337380D01*
X67619523Y-95337380D01*
X68429047Y-96337380D02*
X68429047Y-95337380D01*
X69000476Y-96337380D02*
X68571904Y-95765952D01*
X69000476Y-95337380D02*
X68429047Y-95908809D01*
X66008333Y-93702142D02*
X65960714Y-93749761D01*
X65817857Y-93797380D01*
X65722619Y-93797380D01*
X65579761Y-93749761D01*
X65484523Y-93654523D01*
X65436904Y-93559285D01*
X65389285Y-93368809D01*
X65389285Y-93225952D01*
X65436904Y-93035476D01*
X65484523Y-92940238D01*
X65579761Y-92845000D01*
X65722619Y-92797380D01*
X65817857Y-92797380D01*
X65960714Y-92845000D01*
X66008333Y-92892619D01*
X66389285Y-93749761D02*
X66532142Y-93797380D01*
X66770238Y-93797380D01*
X66865476Y-93749761D01*
X66913095Y-93702142D01*
X66960714Y-93606904D01*
X66960714Y-93511666D01*
X66913095Y-93416428D01*
X66865476Y-93368809D01*
X66770238Y-93321190D01*
X66579761Y-93273571D01*
X66484523Y-93225952D01*
X66436904Y-93178333D01*
X66389285Y-93083095D01*
X66389285Y-92987857D01*
X66436904Y-92892619D01*
X66484523Y-92845000D01*
X66579761Y-92797380D01*
X66817857Y-92797380D01*
X66960714Y-92845000D01*
X67722619Y-93273571D02*
X67865476Y-93321190D01*
X67913095Y-93368809D01*
X67960714Y-93464047D01*
X67960714Y-93606904D01*
X67913095Y-93702142D01*
X67865476Y-93749761D01*
X67770238Y-93797380D01*
X67389285Y-93797380D01*
X67389285Y-92797380D01*
X67722619Y-92797380D01*
X67817857Y-92845000D01*
X67865476Y-92892619D01*
X67913095Y-92987857D01*
X67913095Y-93083095D01*
X67865476Y-93178333D01*
X67817857Y-93225952D01*
X67722619Y-93273571D01*
X67389285Y-93273571D01*
X64889523Y-91257380D02*
X64889523Y-90257380D01*
X65556190Y-90257380D02*
X65746666Y-90257380D01*
X65841904Y-90305000D01*
X65937142Y-90400238D01*
X65984761Y-90590714D01*
X65984761Y-90924047D01*
X65937142Y-91114523D01*
X65841904Y-91209761D01*
X65746666Y-91257380D01*
X65556190Y-91257380D01*
X65460952Y-91209761D01*
X65365714Y-91114523D01*
X65318095Y-90924047D01*
X65318095Y-90590714D01*
X65365714Y-90400238D01*
X65460952Y-90305000D01*
X65556190Y-90257380D01*
X66175238Y-91352619D02*
X66937142Y-91352619D01*
X67175238Y-90257380D02*
X67175238Y-91066904D01*
X67222857Y-91162142D01*
X67270476Y-91209761D01*
X67365714Y-91257380D01*
X67556190Y-91257380D01*
X67651428Y-91209761D01*
X67699047Y-91162142D01*
X67746666Y-91066904D01*
X67746666Y-90257380D01*
X68222857Y-91257380D02*
X68222857Y-90257380D01*
X68603809Y-90257380D01*
X68699047Y-90305000D01*
X68746666Y-90352619D01*
X68794285Y-90447857D01*
X68794285Y-90590714D01*
X68746666Y-90685952D01*
X68699047Y-90733571D01*
X68603809Y-90781190D01*
X68222857Y-90781190D01*
X69222857Y-91257380D02*
X69222857Y-90257380D01*
X69460952Y-90257380D01*
X69603809Y-90305000D01*
X69699047Y-90400238D01*
X69746666Y-90495476D01*
X69794285Y-90685952D01*
X69794285Y-90828809D01*
X69746666Y-91019285D01*
X69699047Y-91114523D01*
X69603809Y-91209761D01*
X69460952Y-91257380D01*
X69222857Y-91257380D01*
X70175238Y-90971666D02*
X70651428Y-90971666D01*
X70080000Y-91257380D02*
X70413333Y-90257380D01*
X70746666Y-91257380D01*
X70937142Y-90257380D02*
X71508571Y-90257380D01*
X71222857Y-91257380D02*
X71222857Y-90257380D01*
X71841904Y-90733571D02*
X72175238Y-90733571D01*
X72318095Y-91257380D02*
X71841904Y-91257380D01*
X71841904Y-90257380D01*
X72318095Y-90257380D01*
X65301904Y-88717380D02*
X65301904Y-87717380D01*
X65682857Y-87717380D01*
X65778095Y-87765000D01*
X65825714Y-87812619D01*
X65873333Y-87907857D01*
X65873333Y-88050714D01*
X65825714Y-88145952D01*
X65778095Y-88193571D01*
X65682857Y-88241190D01*
X65301904Y-88241190D01*
X66206666Y-87717380D02*
X66825714Y-87717380D01*
X66492380Y-88098333D01*
X66635238Y-88098333D01*
X66730476Y-88145952D01*
X66778095Y-88193571D01*
X66825714Y-88288809D01*
X66825714Y-88526904D01*
X66778095Y-88622142D01*
X66730476Y-88669761D01*
X66635238Y-88717380D01*
X66349523Y-88717380D01*
X66254285Y-88669761D01*
X66206666Y-88622142D01*
X65301904Y-86177380D02*
X65301904Y-85177380D01*
X65682857Y-85177380D01*
X65778095Y-85225000D01*
X65825714Y-85272619D01*
X65873333Y-85367857D01*
X65873333Y-85510714D01*
X65825714Y-85605952D01*
X65778095Y-85653571D01*
X65682857Y-85701190D01*
X65301904Y-85701190D01*
X66254285Y-85272619D02*
X66301904Y-85225000D01*
X66397142Y-85177380D01*
X66635238Y-85177380D01*
X66730476Y-85225000D01*
X66778095Y-85272619D01*
X66825714Y-85367857D01*
X66825714Y-85463095D01*
X66778095Y-85605952D01*
X66206666Y-86177380D01*
X66825714Y-86177380D01*
X65301904Y-83637380D02*
X65301904Y-82637380D01*
X65682857Y-82637380D01*
X65778095Y-82685000D01*
X65825714Y-82732619D01*
X65873333Y-82827857D01*
X65873333Y-82970714D01*
X65825714Y-83065952D01*
X65778095Y-83113571D01*
X65682857Y-83161190D01*
X65301904Y-83161190D01*
X66825714Y-83637380D02*
X66254285Y-83637380D01*
X66540000Y-83637380D02*
X66540000Y-82637380D01*
X66444761Y-82780238D01*
X66349523Y-82875476D01*
X66254285Y-82923095D01*
X65301904Y-81097380D02*
X65301904Y-80097380D01*
X65682857Y-80097380D01*
X65778095Y-80145000D01*
X65825714Y-80192619D01*
X65873333Y-80287857D01*
X65873333Y-80430714D01*
X65825714Y-80525952D01*
X65778095Y-80573571D01*
X65682857Y-80621190D01*
X65301904Y-80621190D01*
X66492380Y-80097380D02*
X66587619Y-80097380D01*
X66682857Y-80145000D01*
X66730476Y-80192619D01*
X66778095Y-80287857D01*
X66825714Y-80478333D01*
X66825714Y-80716428D01*
X66778095Y-80906904D01*
X66730476Y-81002142D01*
X66682857Y-81049761D01*
X66587619Y-81097380D01*
X66492380Y-81097380D01*
X66397142Y-81049761D01*
X66349523Y-81002142D01*
X66301904Y-80906904D01*
X66254285Y-80716428D01*
X66254285Y-80478333D01*
X66301904Y-80287857D01*
X66349523Y-80192619D01*
X66397142Y-80145000D01*
X66492380Y-80097380D01*
X65540238Y-70254761D02*
X65683095Y-70302380D01*
X65921190Y-70302380D01*
X66016428Y-70254761D01*
X66064047Y-70207142D01*
X66111666Y-70111904D01*
X66111666Y-70016666D01*
X66064047Y-69921428D01*
X66016428Y-69873809D01*
X65921190Y-69826190D01*
X65730714Y-69778571D01*
X65635476Y-69730952D01*
X65587857Y-69683333D01*
X65540238Y-69588095D01*
X65540238Y-69492857D01*
X65587857Y-69397619D01*
X65635476Y-69350000D01*
X65730714Y-69302380D01*
X65968809Y-69302380D01*
X66111666Y-69350000D01*
X66540238Y-70302380D02*
X66540238Y-69302380D01*
X66778333Y-69302380D01*
X66921190Y-69350000D01*
X67016428Y-69445238D01*
X67064047Y-69540476D01*
X67111666Y-69730952D01*
X67111666Y-69873809D01*
X67064047Y-70064285D01*
X67016428Y-70159523D01*
X66921190Y-70254761D01*
X66778333Y-70302380D01*
X66540238Y-70302380D01*
X67540238Y-70302380D02*
X67540238Y-69302380D01*
X68206904Y-69302380D02*
X68397380Y-69302380D01*
X68492619Y-69350000D01*
X68587857Y-69445238D01*
X68635476Y-69635714D01*
X68635476Y-69969047D01*
X68587857Y-70159523D01*
X68492619Y-70254761D01*
X68397380Y-70302380D01*
X68206904Y-70302380D01*
X68111666Y-70254761D01*
X68016428Y-70159523D01*
X67968809Y-69969047D01*
X67968809Y-69635714D01*
X68016428Y-69445238D01*
X68111666Y-69350000D01*
X68206904Y-69302380D01*
X68825952Y-70397619D02*
X69587857Y-70397619D01*
X70016428Y-69302380D02*
X70111666Y-69302380D01*
X70206904Y-69350000D01*
X70254523Y-69397619D01*
X70302142Y-69492857D01*
X70349761Y-69683333D01*
X70349761Y-69921428D01*
X70302142Y-70111904D01*
X70254523Y-70207142D01*
X70206904Y-70254761D01*
X70111666Y-70302380D01*
X70016428Y-70302380D01*
X69921190Y-70254761D01*
X69873571Y-70207142D01*
X69825952Y-70111904D01*
X69778333Y-69921428D01*
X69778333Y-69683333D01*
X69825952Y-69492857D01*
X69873571Y-69397619D01*
X69921190Y-69350000D01*
X70016428Y-69302380D01*
X73660714Y-118562380D02*
X73327380Y-118086190D01*
X73089285Y-118562380D02*
X73089285Y-117562380D01*
X73470238Y-117562380D01*
X73565476Y-117610000D01*
X73613095Y-117657619D01*
X73660714Y-117752857D01*
X73660714Y-117895714D01*
X73613095Y-117990952D01*
X73565476Y-118038571D01*
X73470238Y-118086190D01*
X73089285Y-118086190D01*
X74517857Y-118562380D02*
X74517857Y-118038571D01*
X74470238Y-117943333D01*
X74375000Y-117895714D01*
X74184523Y-117895714D01*
X74089285Y-117943333D01*
X74517857Y-118514761D02*
X74422619Y-118562380D01*
X74184523Y-118562380D01*
X74089285Y-118514761D01*
X74041666Y-118419523D01*
X74041666Y-118324285D01*
X74089285Y-118229047D01*
X74184523Y-118181428D01*
X74422619Y-118181428D01*
X74517857Y-118133809D01*
X74946428Y-118514761D02*
X75041666Y-118562380D01*
X75232142Y-118562380D01*
X75327380Y-118514761D01*
X75375000Y-118419523D01*
X75375000Y-118371904D01*
X75327380Y-118276666D01*
X75232142Y-118229047D01*
X75089285Y-118229047D01*
X74994047Y-118181428D01*
X74946428Y-118086190D01*
X74946428Y-118038571D01*
X74994047Y-117943333D01*
X75089285Y-117895714D01*
X75232142Y-117895714D01*
X75327380Y-117943333D01*
X75803571Y-117895714D02*
X75803571Y-118895714D01*
X75803571Y-117943333D02*
X75898809Y-117895714D01*
X76089285Y-117895714D01*
X76184523Y-117943333D01*
X76232142Y-117990952D01*
X76279761Y-118086190D01*
X76279761Y-118371904D01*
X76232142Y-118467142D01*
X76184523Y-118514761D01*
X76089285Y-118562380D01*
X75898809Y-118562380D01*
X75803571Y-118514761D01*
X76708333Y-118562380D02*
X76708333Y-117562380D01*
X76708333Y-117943333D02*
X76803571Y-117895714D01*
X76994047Y-117895714D01*
X77089285Y-117943333D01*
X77136904Y-117990952D01*
X77184523Y-118086190D01*
X77184523Y-118371904D01*
X77136904Y-118467142D01*
X77089285Y-118514761D01*
X76994047Y-118562380D01*
X76803571Y-118562380D01*
X76708333Y-118514761D01*
X77994047Y-118514761D02*
X77898809Y-118562380D01*
X77708333Y-118562380D01*
X77613095Y-118514761D01*
X77565476Y-118419523D01*
X77565476Y-118038571D01*
X77613095Y-117943333D01*
X77708333Y-117895714D01*
X77898809Y-117895714D01*
X77994047Y-117943333D01*
X78041666Y-118038571D01*
X78041666Y-118133809D01*
X77565476Y-118229047D01*
X78470238Y-118562380D02*
X78470238Y-117895714D01*
X78470238Y-118086190D02*
X78517857Y-117990952D01*
X78565476Y-117943333D01*
X78660714Y-117895714D01*
X78755952Y-117895714D01*
X79089285Y-118562380D02*
X79089285Y-117895714D01*
X79089285Y-118086190D02*
X79136904Y-117990952D01*
X79184523Y-117943333D01*
X79279761Y-117895714D01*
X79375000Y-117895714D01*
X79613095Y-117895714D02*
X79851190Y-118562380D01*
X80089285Y-117895714D02*
X79851190Y-118562380D01*
X79755952Y-118800476D01*
X79708333Y-118848095D01*
X79613095Y-118895714D01*
X80232142Y-118657619D02*
X80994047Y-118657619D01*
X81232142Y-118562380D02*
X81232142Y-117562380D01*
X81613095Y-117562380D01*
X81708333Y-117610000D01*
X81755952Y-117657619D01*
X81803571Y-117752857D01*
X81803571Y-117895714D01*
X81755952Y-117990952D01*
X81708333Y-118038571D01*
X81613095Y-118086190D01*
X81232142Y-118086190D01*
X82232142Y-118562380D02*
X82232142Y-117895714D01*
X82232142Y-117562380D02*
X82184523Y-117610000D01*
X82232142Y-117657619D01*
X82279761Y-117610000D01*
X82232142Y-117562380D01*
X82232142Y-117657619D01*
X82470238Y-118657619D02*
X83232142Y-118657619D01*
X83422619Y-117657619D02*
X83470238Y-117610000D01*
X83565476Y-117562380D01*
X83803571Y-117562380D01*
X83898809Y-117610000D01*
X83946428Y-117657619D01*
X83994047Y-117752857D01*
X83994047Y-117848095D01*
X83946428Y-117990952D01*
X83375000Y-118562380D01*
X83994047Y-118562380D01*
X84184523Y-118657619D02*
X84946428Y-118657619D01*
X85089285Y-117562380D02*
X85708333Y-117562380D01*
X85375000Y-117943333D01*
X85517857Y-117943333D01*
X85613095Y-117990952D01*
X85660714Y-118038571D01*
X85708333Y-118133809D01*
X85708333Y-118371904D01*
X85660714Y-118467142D01*
X85613095Y-118514761D01*
X85517857Y-118562380D01*
X85232142Y-118562380D01*
X85136904Y-118514761D01*
X85089285Y-118467142D01*
X63801666Y-118912380D02*
X63801666Y-119626666D01*
X63754047Y-119769523D01*
X63658809Y-119864761D01*
X63515952Y-119912380D01*
X63420714Y-119912380D01*
X64230238Y-119007619D02*
X64277857Y-118960000D01*
X64373095Y-118912380D01*
X64611190Y-118912380D01*
X64706428Y-118960000D01*
X64754047Y-119007619D01*
X64801666Y-119102857D01*
X64801666Y-119198095D01*
X64754047Y-119340952D01*
X64182619Y-119912380D01*
X64801666Y-119912380D01*
X61777857Y-129912380D02*
X61444523Y-129436190D01*
X61206428Y-129912380D02*
X61206428Y-128912380D01*
X61587380Y-128912380D01*
X61682619Y-128960000D01*
X61730238Y-129007619D01*
X61777857Y-129102857D01*
X61777857Y-129245714D01*
X61730238Y-129340952D01*
X61682619Y-129388571D01*
X61587380Y-129436190D01*
X61206428Y-129436190D01*
X62206428Y-129388571D02*
X62539761Y-129388571D01*
X62682619Y-129912380D02*
X62206428Y-129912380D01*
X62206428Y-128912380D01*
X62682619Y-128912380D01*
X63444523Y-129388571D02*
X63111190Y-129388571D01*
X63111190Y-129912380D02*
X63111190Y-128912380D01*
X63587380Y-128912380D01*
X63730238Y-130007619D02*
X64492142Y-130007619D01*
X65301666Y-129817142D02*
X65254047Y-129864761D01*
X65111190Y-129912380D01*
X65015952Y-129912380D01*
X64873095Y-129864761D01*
X64777857Y-129769523D01*
X64730238Y-129674285D01*
X64682619Y-129483809D01*
X64682619Y-129340952D01*
X64730238Y-129150476D01*
X64777857Y-129055238D01*
X64873095Y-128960000D01*
X65015952Y-128912380D01*
X65111190Y-128912380D01*
X65254047Y-128960000D01*
X65301666Y-129007619D01*
X66206428Y-129912380D02*
X65730238Y-129912380D01*
X65730238Y-128912380D01*
X66539761Y-129912380D02*
X66539761Y-128912380D01*
X67111190Y-129912380D02*
X66682619Y-129340952D01*
X67111190Y-128912380D02*
X66539761Y-129483809D01*
X73223571Y-137612380D02*
X72652142Y-137612380D01*
X72937857Y-137612380D02*
X72937857Y-136612380D01*
X72842619Y-136755238D01*
X72747380Y-136850476D01*
X72652142Y-136898095D01*
X73842619Y-136612380D02*
X73937857Y-136612380D01*
X74033095Y-136660000D01*
X74080714Y-136707619D01*
X74128333Y-136802857D01*
X74175952Y-136993333D01*
X74175952Y-137231428D01*
X74128333Y-137421904D01*
X74080714Y-137517142D01*
X74033095Y-137564761D01*
X73937857Y-137612380D01*
X73842619Y-137612380D01*
X73747380Y-137564761D01*
X73699761Y-137517142D01*
X73652142Y-137421904D01*
X73604523Y-137231428D01*
X73604523Y-136993333D01*
X73652142Y-136802857D01*
X73699761Y-136707619D01*
X73747380Y-136660000D01*
X73842619Y-136612380D01*
X75033095Y-136945714D02*
X75033095Y-137612380D01*
X74604523Y-136945714D02*
X74604523Y-137469523D01*
X74652142Y-137564761D01*
X74747380Y-137612380D01*
X74890238Y-137612380D01*
X74985476Y-137564761D01*
X75033095Y-137517142D01*
X75842619Y-137088571D02*
X75509285Y-137088571D01*
X75509285Y-137612380D02*
X75509285Y-136612380D01*
X75985476Y-136612380D01*
X107640571Y-143172380D02*
X107069142Y-143172380D01*
X107354857Y-143172380D02*
X107354857Y-142172380D01*
X107259619Y-142315238D01*
X107164380Y-142410476D01*
X107069142Y-142458095D01*
X108259619Y-142172380D02*
X108354857Y-142172380D01*
X108450095Y-142220000D01*
X108497714Y-142267619D01*
X108545333Y-142362857D01*
X108592952Y-142553333D01*
X108592952Y-142791428D01*
X108545333Y-142981904D01*
X108497714Y-143077142D01*
X108450095Y-143124761D01*
X108354857Y-143172380D01*
X108259619Y-143172380D01*
X108164380Y-143124761D01*
X108116761Y-143077142D01*
X108069142Y-142981904D01*
X108021523Y-142791428D01*
X108021523Y-142553333D01*
X108069142Y-142362857D01*
X108116761Y-142267619D01*
X108164380Y-142220000D01*
X108259619Y-142172380D01*
X109450095Y-142505714D02*
X109450095Y-143172380D01*
X109021523Y-142505714D02*
X109021523Y-143029523D01*
X109069142Y-143124761D01*
X109164380Y-143172380D01*
X109307238Y-143172380D01*
X109402476Y-143124761D01*
X109450095Y-143077142D01*
X110259619Y-142648571D02*
X109926285Y-142648571D01*
X109926285Y-143172380D02*
X109926285Y-142172380D01*
X110402476Y-142172380D01*
X118816571Y-143172380D02*
X118245142Y-143172380D01*
X118530857Y-143172380D02*
X118530857Y-142172380D01*
X118435619Y-142315238D01*
X118340380Y-142410476D01*
X118245142Y-142458095D01*
X119435619Y-142172380D02*
X119530857Y-142172380D01*
X119626095Y-142220000D01*
X119673714Y-142267619D01*
X119721333Y-142362857D01*
X119768952Y-142553333D01*
X119768952Y-142791428D01*
X119721333Y-142981904D01*
X119673714Y-143077142D01*
X119626095Y-143124761D01*
X119530857Y-143172380D01*
X119435619Y-143172380D01*
X119340380Y-143124761D01*
X119292761Y-143077142D01*
X119245142Y-142981904D01*
X119197523Y-142791428D01*
X119197523Y-142553333D01*
X119245142Y-142362857D01*
X119292761Y-142267619D01*
X119340380Y-142220000D01*
X119435619Y-142172380D01*
X120626095Y-142505714D02*
X120626095Y-143172380D01*
X120197523Y-142505714D02*
X120197523Y-143029523D01*
X120245142Y-143124761D01*
X120340380Y-143172380D01*
X120483238Y-143172380D01*
X120578476Y-143124761D01*
X120626095Y-143077142D01*
X121435619Y-142648571D02*
X121102285Y-142648571D01*
X121102285Y-143172380D02*
X121102285Y-142172380D01*
X121578476Y-142172380D01*
X103068571Y-143327380D02*
X102497142Y-143327380D01*
X102782857Y-143327380D02*
X102782857Y-142327380D01*
X102687619Y-142470238D01*
X102592380Y-142565476D01*
X102497142Y-142613095D01*
X103687619Y-142327380D02*
X103782857Y-142327380D01*
X103878095Y-142375000D01*
X103925714Y-142422619D01*
X103973333Y-142517857D01*
X104020952Y-142708333D01*
X104020952Y-142946428D01*
X103973333Y-143136904D01*
X103925714Y-143232142D01*
X103878095Y-143279761D01*
X103782857Y-143327380D01*
X103687619Y-143327380D01*
X103592380Y-143279761D01*
X103544761Y-143232142D01*
X103497142Y-143136904D01*
X103449523Y-142946428D01*
X103449523Y-142708333D01*
X103497142Y-142517857D01*
X103544761Y-142422619D01*
X103592380Y-142375000D01*
X103687619Y-142327380D01*
X104878095Y-142660714D02*
X104878095Y-143327380D01*
X104449523Y-142660714D02*
X104449523Y-143184523D01*
X104497142Y-143279761D01*
X104592380Y-143327380D01*
X104735238Y-143327380D01*
X104830476Y-143279761D01*
X104878095Y-143232142D01*
X105687619Y-142803571D02*
X105354285Y-142803571D01*
X105354285Y-143327380D02*
X105354285Y-142327380D01*
X105830476Y-142327380D01*
X113863571Y-143327380D02*
X113292142Y-143327380D01*
X113577857Y-143327380D02*
X113577857Y-142327380D01*
X113482619Y-142470238D01*
X113387380Y-142565476D01*
X113292142Y-142613095D01*
X114482619Y-142327380D02*
X114577857Y-142327380D01*
X114673095Y-142375000D01*
X114720714Y-142422619D01*
X114768333Y-142517857D01*
X114815952Y-142708333D01*
X114815952Y-142946428D01*
X114768333Y-143136904D01*
X114720714Y-143232142D01*
X114673095Y-143279761D01*
X114577857Y-143327380D01*
X114482619Y-143327380D01*
X114387380Y-143279761D01*
X114339761Y-143232142D01*
X114292142Y-143136904D01*
X114244523Y-142946428D01*
X114244523Y-142708333D01*
X114292142Y-142517857D01*
X114339761Y-142422619D01*
X114387380Y-142375000D01*
X114482619Y-142327380D01*
X115673095Y-142660714D02*
X115673095Y-143327380D01*
X115244523Y-142660714D02*
X115244523Y-143184523D01*
X115292142Y-143279761D01*
X115387380Y-143327380D01*
X115530238Y-143327380D01*
X115625476Y-143279761D01*
X115673095Y-143232142D01*
X116482619Y-142803571D02*
X116149285Y-142803571D01*
X116149285Y-143327380D02*
X116149285Y-142327380D01*
X116625476Y-142327380D01*
X65413095Y-151852380D02*
X64936904Y-151852380D01*
X64889285Y-152328571D01*
X64936904Y-152280952D01*
X65032142Y-152233333D01*
X65270238Y-152233333D01*
X65365476Y-152280952D01*
X65413095Y-152328571D01*
X65460714Y-152423809D01*
X65460714Y-152661904D01*
X65413095Y-152757142D01*
X65365476Y-152804761D01*
X65270238Y-152852380D01*
X65032142Y-152852380D01*
X64936904Y-152804761D01*
X64889285Y-152757142D01*
X65746428Y-151852380D02*
X66079761Y-152852380D01*
X66413095Y-151852380D01*
X67508333Y-152852380D02*
X67508333Y-152185714D01*
X67508333Y-151852380D02*
X67460714Y-151900000D01*
X67508333Y-151947619D01*
X67555952Y-151900000D01*
X67508333Y-151852380D01*
X67508333Y-151947619D01*
X67984523Y-152185714D02*
X67984523Y-152852380D01*
X67984523Y-152280952D02*
X68032142Y-152233333D01*
X68127380Y-152185714D01*
X68270238Y-152185714D01*
X68365476Y-152233333D01*
X68413095Y-152328571D01*
X68413095Y-152852380D01*
X90797380Y-147407380D02*
X90797380Y-148216904D01*
X90845000Y-148312142D01*
X90892619Y-148359761D01*
X90987857Y-148407380D01*
X91178333Y-148407380D01*
X91273571Y-148359761D01*
X91321190Y-148312142D01*
X91368809Y-148216904D01*
X91368809Y-147407380D01*
X91797380Y-148359761D02*
X91940238Y-148407380D01*
X92178333Y-148407380D01*
X92273571Y-148359761D01*
X92321190Y-148312142D01*
X92368809Y-148216904D01*
X92368809Y-148121666D01*
X92321190Y-148026428D01*
X92273571Y-147978809D01*
X92178333Y-147931190D01*
X91987857Y-147883571D01*
X91892619Y-147835952D01*
X91845000Y-147788333D01*
X91797380Y-147693095D01*
X91797380Y-147597857D01*
X91845000Y-147502619D01*
X91892619Y-147455000D01*
X91987857Y-147407380D01*
X92225952Y-147407380D01*
X92368809Y-147455000D01*
X93130714Y-147883571D02*
X93273571Y-147931190D01*
X93321190Y-147978809D01*
X93368809Y-148074047D01*
X93368809Y-148216904D01*
X93321190Y-148312142D01*
X93273571Y-148359761D01*
X93178333Y-148407380D01*
X92797380Y-148407380D01*
X92797380Y-147407380D01*
X93130714Y-147407380D01*
X93225952Y-147455000D01*
X93273571Y-147502619D01*
X93321190Y-147597857D01*
X93321190Y-147693095D01*
X93273571Y-147788333D01*
X93225952Y-147835952D01*
X93130714Y-147883571D01*
X92797380Y-147883571D01*
X95035476Y-147407380D02*
X94559285Y-147407380D01*
X94511666Y-147883571D01*
X94559285Y-147835952D01*
X94654523Y-147788333D01*
X94892619Y-147788333D01*
X94987857Y-147835952D01*
X95035476Y-147883571D01*
X95083095Y-147978809D01*
X95083095Y-148216904D01*
X95035476Y-148312142D01*
X94987857Y-148359761D01*
X94892619Y-148407380D01*
X94654523Y-148407380D01*
X94559285Y-148359761D01*
X94511666Y-148312142D01*
X95368809Y-147407380D02*
X95702142Y-148407380D01*
X96035476Y-147407380D01*
X63801666Y-136057380D02*
X63801666Y-136771666D01*
X63754047Y-136914523D01*
X63658809Y-137009761D01*
X63515952Y-137057380D01*
X63420714Y-137057380D01*
X64754047Y-136057380D02*
X64277857Y-136057380D01*
X64230238Y-136533571D01*
X64277857Y-136485952D01*
X64373095Y-136438333D01*
X64611190Y-136438333D01*
X64706428Y-136485952D01*
X64754047Y-136533571D01*
X64801666Y-136628809D01*
X64801666Y-136866904D01*
X64754047Y-136962142D01*
X64706428Y-137009761D01*
X64611190Y-137057380D01*
X64373095Y-137057380D01*
X64277857Y-137009761D01*
X64230238Y-136962142D01*
X61777857Y-147057380D02*
X61444523Y-146581190D01*
X61206428Y-147057380D02*
X61206428Y-146057380D01*
X61587380Y-146057380D01*
X61682619Y-146105000D01*
X61730238Y-146152619D01*
X61777857Y-146247857D01*
X61777857Y-146390714D01*
X61730238Y-146485952D01*
X61682619Y-146533571D01*
X61587380Y-146581190D01*
X61206428Y-146581190D01*
X62206428Y-146533571D02*
X62539761Y-146533571D01*
X62682619Y-147057380D02*
X62206428Y-147057380D01*
X62206428Y-146057380D01*
X62682619Y-146057380D01*
X63444523Y-146533571D02*
X63111190Y-146533571D01*
X63111190Y-147057380D02*
X63111190Y-146057380D01*
X63587380Y-146057380D01*
X63730238Y-147152619D02*
X64492142Y-147152619D01*
X65301666Y-146962142D02*
X65254047Y-147009761D01*
X65111190Y-147057380D01*
X65015952Y-147057380D01*
X64873095Y-147009761D01*
X64777857Y-146914523D01*
X64730238Y-146819285D01*
X64682619Y-146628809D01*
X64682619Y-146485952D01*
X64730238Y-146295476D01*
X64777857Y-146200238D01*
X64873095Y-146105000D01*
X65015952Y-146057380D01*
X65111190Y-146057380D01*
X65254047Y-146105000D01*
X65301666Y-146152619D01*
X66206428Y-147057380D02*
X65730238Y-147057380D01*
X65730238Y-146057380D01*
X66539761Y-147057380D02*
X66539761Y-146057380D01*
X67111190Y-147057380D02*
X66682619Y-146485952D01*
X67111190Y-146057380D02*
X66539761Y-146628809D01*
X88273095Y-134497380D02*
X87796904Y-134497380D01*
X87749285Y-134973571D01*
X87796904Y-134925952D01*
X87892142Y-134878333D01*
X88130238Y-134878333D01*
X88225476Y-134925952D01*
X88273095Y-134973571D01*
X88320714Y-135068809D01*
X88320714Y-135306904D01*
X88273095Y-135402142D01*
X88225476Y-135449761D01*
X88130238Y-135497380D01*
X87892142Y-135497380D01*
X87796904Y-135449761D01*
X87749285Y-135402142D01*
X88606428Y-134497380D02*
X88939761Y-135497380D01*
X89273095Y-134497380D01*
X90368333Y-135497380D02*
X90368333Y-134830714D01*
X90368333Y-134497380D02*
X90320714Y-134545000D01*
X90368333Y-134592619D01*
X90415952Y-134545000D01*
X90368333Y-134497380D01*
X90368333Y-134592619D01*
X90844523Y-134830714D02*
X90844523Y-135497380D01*
X90844523Y-134925952D02*
X90892142Y-134878333D01*
X90987380Y-134830714D01*
X91130238Y-134830714D01*
X91225476Y-134878333D01*
X91273095Y-134973571D01*
X91273095Y-135497380D01*
X103712047Y-148629714D02*
X103712047Y-149629714D01*
X103712047Y-148677333D02*
X103807285Y-148629714D01*
X103997761Y-148629714D01*
X104093000Y-148677333D01*
X104140619Y-148724952D01*
X104188238Y-148820190D01*
X104188238Y-149105904D01*
X104140619Y-149201142D01*
X104093000Y-149248761D01*
X103997761Y-149296380D01*
X103807285Y-149296380D01*
X103712047Y-149248761D01*
X104759666Y-149296380D02*
X104664428Y-149248761D01*
X104616809Y-149201142D01*
X104569190Y-149105904D01*
X104569190Y-148820190D01*
X104616809Y-148724952D01*
X104664428Y-148677333D01*
X104759666Y-148629714D01*
X104902523Y-148629714D01*
X104997761Y-148677333D01*
X105045380Y-148724952D01*
X105093000Y-148820190D01*
X105093000Y-149105904D01*
X105045380Y-149201142D01*
X104997761Y-149248761D01*
X104902523Y-149296380D01*
X104759666Y-149296380D01*
X105426333Y-148629714D02*
X105616809Y-149296380D01*
X105807285Y-148820190D01*
X105997761Y-149296380D01*
X106188238Y-148629714D01*
X106950142Y-149248761D02*
X106854904Y-149296380D01*
X106664428Y-149296380D01*
X106569190Y-149248761D01*
X106521571Y-149153523D01*
X106521571Y-148772571D01*
X106569190Y-148677333D01*
X106664428Y-148629714D01*
X106854904Y-148629714D01*
X106950142Y-148677333D01*
X106997761Y-148772571D01*
X106997761Y-148867809D01*
X106521571Y-148963047D01*
X107426333Y-149296380D02*
X107426333Y-148629714D01*
X107426333Y-148820190D02*
X107473952Y-148724952D01*
X107521571Y-148677333D01*
X107616809Y-148629714D01*
X107712047Y-148629714D01*
X108664428Y-148629714D02*
X109045380Y-148629714D01*
X108807285Y-148296380D02*
X108807285Y-149153523D01*
X108854904Y-149248761D01*
X108950142Y-149296380D01*
X109045380Y-149296380D01*
X109521571Y-149296380D02*
X109426333Y-149248761D01*
X109378714Y-149201142D01*
X109331095Y-149105904D01*
X109331095Y-148820190D01*
X109378714Y-148724952D01*
X109426333Y-148677333D01*
X109521571Y-148629714D01*
X109664428Y-148629714D01*
X109759666Y-148677333D01*
X109807285Y-148724952D01*
X109854904Y-148820190D01*
X109854904Y-149105904D01*
X109807285Y-149201142D01*
X109759666Y-149248761D01*
X109664428Y-149296380D01*
X109521571Y-149296380D01*
X111045380Y-149296380D02*
X111045380Y-148296380D01*
X111283476Y-148296380D01*
X111426333Y-148344000D01*
X111521571Y-148439238D01*
X111569190Y-148534476D01*
X111616809Y-148724952D01*
X111616809Y-148867809D01*
X111569190Y-149058285D01*
X111521571Y-149153523D01*
X111426333Y-149248761D01*
X111283476Y-149296380D01*
X111045380Y-149296380D01*
X112045380Y-149296380D02*
X112045380Y-148296380D01*
X112283476Y-148296380D01*
X112426333Y-148344000D01*
X112521571Y-148439238D01*
X112569190Y-148534476D01*
X112616809Y-148724952D01*
X112616809Y-148867809D01*
X112569190Y-149058285D01*
X112521571Y-149153523D01*
X112426333Y-149248761D01*
X112283476Y-149296380D01*
X112045380Y-149296380D01*
X112997761Y-149248761D02*
X113140619Y-149296380D01*
X113378714Y-149296380D01*
X113473952Y-149248761D01*
X113521571Y-149201142D01*
X113569190Y-149105904D01*
X113569190Y-149010666D01*
X113521571Y-148915428D01*
X113473952Y-148867809D01*
X113378714Y-148820190D01*
X113188238Y-148772571D01*
X113093000Y-148724952D01*
X113045380Y-148677333D01*
X112997761Y-148582095D01*
X112997761Y-148486857D01*
X113045380Y-148391619D01*
X113093000Y-148344000D01*
X113188238Y-148296380D01*
X113426333Y-148296380D01*
X113569190Y-148344000D01*
X114521571Y-149296380D02*
X113950142Y-149296380D01*
X114235857Y-149296380D02*
X114235857Y-148296380D01*
X114140619Y-148439238D01*
X114045380Y-148534476D01*
X113950142Y-148582095D01*
X118571047Y-148883714D02*
X118571047Y-149883714D01*
X118571047Y-148931333D02*
X118666285Y-148883714D01*
X118856761Y-148883714D01*
X118952000Y-148931333D01*
X118999619Y-148978952D01*
X119047238Y-149074190D01*
X119047238Y-149359904D01*
X118999619Y-149455142D01*
X118952000Y-149502761D01*
X118856761Y-149550380D01*
X118666285Y-149550380D01*
X118571047Y-149502761D01*
X119618666Y-149550380D02*
X119523428Y-149502761D01*
X119475809Y-149455142D01*
X119428190Y-149359904D01*
X119428190Y-149074190D01*
X119475809Y-148978952D01*
X119523428Y-148931333D01*
X119618666Y-148883714D01*
X119761523Y-148883714D01*
X119856761Y-148931333D01*
X119904380Y-148978952D01*
X119952000Y-149074190D01*
X119952000Y-149359904D01*
X119904380Y-149455142D01*
X119856761Y-149502761D01*
X119761523Y-149550380D01*
X119618666Y-149550380D01*
X120285333Y-148883714D02*
X120475809Y-149550380D01*
X120666285Y-149074190D01*
X120856761Y-149550380D01*
X121047238Y-148883714D01*
X121809142Y-149502761D02*
X121713904Y-149550380D01*
X121523428Y-149550380D01*
X121428190Y-149502761D01*
X121380571Y-149407523D01*
X121380571Y-149026571D01*
X121428190Y-148931333D01*
X121523428Y-148883714D01*
X121713904Y-148883714D01*
X121809142Y-148931333D01*
X121856761Y-149026571D01*
X121856761Y-149121809D01*
X121380571Y-149217047D01*
X122285333Y-149550380D02*
X122285333Y-148883714D01*
X122285333Y-149074190D02*
X122332952Y-148978952D01*
X122380571Y-148931333D01*
X122475809Y-148883714D01*
X122571047Y-148883714D01*
X123523428Y-148883714D02*
X123904380Y-148883714D01*
X123666285Y-148550380D02*
X123666285Y-149407523D01*
X123713904Y-149502761D01*
X123809142Y-149550380D01*
X123904380Y-149550380D01*
X124380571Y-149550380D02*
X124285333Y-149502761D01*
X124237714Y-149455142D01*
X124190095Y-149359904D01*
X124190095Y-149074190D01*
X124237714Y-148978952D01*
X124285333Y-148931333D01*
X124380571Y-148883714D01*
X124523428Y-148883714D01*
X124618666Y-148931333D01*
X124666285Y-148978952D01*
X124713904Y-149074190D01*
X124713904Y-149359904D01*
X124666285Y-149455142D01*
X124618666Y-149502761D01*
X124523428Y-149550380D01*
X124380571Y-149550380D01*
X125904380Y-149550380D02*
X125904380Y-148550380D01*
X126142476Y-148550380D01*
X126285333Y-148598000D01*
X126380571Y-148693238D01*
X126428190Y-148788476D01*
X126475809Y-148978952D01*
X126475809Y-149121809D01*
X126428190Y-149312285D01*
X126380571Y-149407523D01*
X126285333Y-149502761D01*
X126142476Y-149550380D01*
X125904380Y-149550380D01*
X126904380Y-149550380D02*
X126904380Y-148550380D01*
X127142476Y-148550380D01*
X127285333Y-148598000D01*
X127380571Y-148693238D01*
X127428190Y-148788476D01*
X127475809Y-148978952D01*
X127475809Y-149121809D01*
X127428190Y-149312285D01*
X127380571Y-149407523D01*
X127285333Y-149502761D01*
X127142476Y-149550380D01*
X126904380Y-149550380D01*
X127856761Y-149502761D02*
X127999619Y-149550380D01*
X128237714Y-149550380D01*
X128332952Y-149502761D01*
X128380571Y-149455142D01*
X128428190Y-149359904D01*
X128428190Y-149264666D01*
X128380571Y-149169428D01*
X128332952Y-149121809D01*
X128237714Y-149074190D01*
X128047238Y-149026571D01*
X127952000Y-148978952D01*
X127904380Y-148931333D01*
X127856761Y-148836095D01*
X127856761Y-148740857D01*
X127904380Y-148645619D01*
X127952000Y-148598000D01*
X128047238Y-148550380D01*
X128285333Y-148550380D01*
X128428190Y-148598000D01*
X128809142Y-148645619D02*
X128856761Y-148598000D01*
X128952000Y-148550380D01*
X129190095Y-148550380D01*
X129285333Y-148598000D01*
X129332952Y-148645619D01*
X129380571Y-148740857D01*
X129380571Y-148836095D01*
X129332952Y-148978952D01*
X128761523Y-149550380D01*
X129380571Y-149550380D01*
X91766666Y-124547380D02*
X91290476Y-124547380D01*
X91242857Y-125023571D01*
X91290476Y-124975952D01*
X91385714Y-124928333D01*
X91623809Y-124928333D01*
X91719047Y-124975952D01*
X91766666Y-125023571D01*
X91814285Y-125118809D01*
X91814285Y-125356904D01*
X91766666Y-125452142D01*
X91719047Y-125499761D01*
X91623809Y-125547380D01*
X91385714Y-125547380D01*
X91290476Y-125499761D01*
X91242857Y-125452142D01*
X92100000Y-124547380D02*
X92433333Y-125547380D01*
X92766666Y-124547380D01*
X93719047Y-125166428D02*
X93766666Y-125118809D01*
X93861904Y-125071190D01*
X94052380Y-125166428D01*
X94147619Y-125118809D01*
X94195238Y-125071190D01*
X95100000Y-125547380D02*
X94528571Y-125547380D01*
X94814285Y-125547380D02*
X94814285Y-124547380D01*
X94719047Y-124690238D01*
X94623809Y-124785476D01*
X94528571Y-124833095D01*
X95528571Y-125452142D02*
X95576190Y-125499761D01*
X95528571Y-125547380D01*
X95480952Y-125499761D01*
X95528571Y-125452142D01*
X95528571Y-125547380D01*
X96480952Y-124547380D02*
X96004761Y-124547380D01*
X95957142Y-125023571D01*
X96004761Y-124975952D01*
X96100000Y-124928333D01*
X96338095Y-124928333D01*
X96433333Y-124975952D01*
X96480952Y-125023571D01*
X96528571Y-125118809D01*
X96528571Y-125356904D01*
X96480952Y-125452142D01*
X96433333Y-125499761D01*
X96338095Y-125547380D01*
X96100000Y-125547380D01*
X96004761Y-125499761D01*
X95957142Y-125452142D01*
X96909523Y-125261666D02*
X97385714Y-125261666D01*
X96814285Y-125547380D02*
X97147619Y-124547380D01*
X97480952Y-125547380D01*
X98433333Y-124880714D02*
X98814285Y-124880714D01*
X98576190Y-125547380D02*
X98576190Y-124690238D01*
X98623809Y-124595000D01*
X98719047Y-124547380D01*
X98814285Y-124547380D01*
X99147619Y-125547380D02*
X99147619Y-124880714D01*
X99147619Y-125071190D02*
X99195238Y-124975952D01*
X99242857Y-124928333D01*
X99338095Y-124880714D01*
X99433333Y-124880714D01*
X99909523Y-125547380D02*
X99814285Y-125499761D01*
X99766666Y-125452142D01*
X99719047Y-125356904D01*
X99719047Y-125071190D01*
X99766666Y-124975952D01*
X99814285Y-124928333D01*
X99909523Y-124880714D01*
X100052380Y-124880714D01*
X100147619Y-124928333D01*
X100195238Y-124975952D01*
X100242857Y-125071190D01*
X100242857Y-125356904D01*
X100195238Y-125452142D01*
X100147619Y-125499761D01*
X100052380Y-125547380D01*
X99909523Y-125547380D01*
X100671428Y-125547380D02*
X100671428Y-124880714D01*
X100671428Y-124975952D02*
X100719047Y-124928333D01*
X100814285Y-124880714D01*
X100957142Y-124880714D01*
X101052380Y-124928333D01*
X101100000Y-125023571D01*
X101100000Y-125547380D01*
X101100000Y-125023571D02*
X101147619Y-124928333D01*
X101242857Y-124880714D01*
X101385714Y-124880714D01*
X101480952Y-124928333D01*
X101528571Y-125023571D01*
X101528571Y-125547380D01*
X103338095Y-125547380D02*
X103004761Y-125071190D01*
X102766666Y-125547380D02*
X102766666Y-124547380D01*
X103147619Y-124547380D01*
X103242857Y-124595000D01*
X103290476Y-124642619D01*
X103338095Y-124737857D01*
X103338095Y-124880714D01*
X103290476Y-124975952D01*
X103242857Y-125023571D01*
X103147619Y-125071190D01*
X102766666Y-125071190D01*
X104195238Y-125547380D02*
X104195238Y-125023571D01*
X104147619Y-124928333D01*
X104052380Y-124880714D01*
X103861904Y-124880714D01*
X103766666Y-124928333D01*
X104195238Y-125499761D02*
X104100000Y-125547380D01*
X103861904Y-125547380D01*
X103766666Y-125499761D01*
X103719047Y-125404523D01*
X103719047Y-125309285D01*
X103766666Y-125214047D01*
X103861904Y-125166428D01*
X104100000Y-125166428D01*
X104195238Y-125118809D01*
X104623809Y-125499761D02*
X104719047Y-125547380D01*
X104909523Y-125547380D01*
X105004761Y-125499761D01*
X105052380Y-125404523D01*
X105052380Y-125356904D01*
X105004761Y-125261666D01*
X104909523Y-125214047D01*
X104766666Y-125214047D01*
X104671428Y-125166428D01*
X104623809Y-125071190D01*
X104623809Y-125023571D01*
X104671428Y-124928333D01*
X104766666Y-124880714D01*
X104909523Y-124880714D01*
X105004761Y-124928333D01*
X105480952Y-124880714D02*
X105480952Y-125880714D01*
X105480952Y-124928333D02*
X105576190Y-124880714D01*
X105766666Y-124880714D01*
X105861904Y-124928333D01*
X105909523Y-124975952D01*
X105957142Y-125071190D01*
X105957142Y-125356904D01*
X105909523Y-125452142D01*
X105861904Y-125499761D01*
X105766666Y-125547380D01*
X105576190Y-125547380D01*
X105480952Y-125499761D01*
X106385714Y-125547380D02*
X106385714Y-124547380D01*
X106385714Y-124928333D02*
X106480952Y-124880714D01*
X106671428Y-124880714D01*
X106766666Y-124928333D01*
X106814285Y-124975952D01*
X106861904Y-125071190D01*
X106861904Y-125356904D01*
X106814285Y-125452142D01*
X106766666Y-125499761D01*
X106671428Y-125547380D01*
X106480952Y-125547380D01*
X106385714Y-125499761D01*
X107671428Y-125499761D02*
X107576190Y-125547380D01*
X107385714Y-125547380D01*
X107290476Y-125499761D01*
X107242857Y-125404523D01*
X107242857Y-125023571D01*
X107290476Y-124928333D01*
X107385714Y-124880714D01*
X107576190Y-124880714D01*
X107671428Y-124928333D01*
X107719047Y-125023571D01*
X107719047Y-125118809D01*
X107242857Y-125214047D01*
X108147619Y-125547380D02*
X108147619Y-124880714D01*
X108147619Y-125071190D02*
X108195238Y-124975952D01*
X108242857Y-124928333D01*
X108338095Y-124880714D01*
X108433333Y-124880714D01*
X108766666Y-125547380D02*
X108766666Y-124880714D01*
X108766666Y-125071190D02*
X108814285Y-124975952D01*
X108861904Y-124928333D01*
X108957142Y-124880714D01*
X109052380Y-124880714D01*
X109290476Y-124880714D02*
X109528571Y-125547380D01*
X109766666Y-124880714D02*
X109528571Y-125547380D01*
X109433333Y-125785476D01*
X109385714Y-125833095D01*
X109290476Y-125880714D01*
X110909523Y-125547380D02*
X110909523Y-124547380D01*
X111290476Y-124547380D01*
X111385714Y-124595000D01*
X111433333Y-124642619D01*
X111480952Y-124737857D01*
X111480952Y-124880714D01*
X111433333Y-124975952D01*
X111385714Y-125023571D01*
X111290476Y-125071190D01*
X110909523Y-125071190D01*
X111909523Y-125547380D02*
X111909523Y-124880714D01*
X111909523Y-124547380D02*
X111861904Y-124595000D01*
X111909523Y-124642619D01*
X111957142Y-124595000D01*
X111909523Y-124547380D01*
X111909523Y-124642619D01*
X110307380Y-139175476D02*
X109307380Y-139175476D01*
X110307380Y-138604047D01*
X109307380Y-138604047D01*
X110212142Y-137556428D02*
X110259761Y-137604047D01*
X110307380Y-137746904D01*
X110307380Y-137842142D01*
X110259761Y-137985000D01*
X110164523Y-138080238D01*
X110069285Y-138127857D01*
X109878809Y-138175476D01*
X109735952Y-138175476D01*
X109545476Y-138127857D01*
X109450238Y-138080238D01*
X109355000Y-137985000D01*
X109307380Y-137842142D01*
X109307380Y-137746904D01*
X109355000Y-137604047D01*
X109402619Y-137556428D01*
X110307380Y-137127857D02*
X109307380Y-137127857D01*
X109307380Y-136746904D01*
X109355000Y-136651666D01*
X109402619Y-136604047D01*
X109497857Y-136556428D01*
X109640714Y-136556428D01*
X109735952Y-136604047D01*
X109783571Y-136651666D01*
X109831190Y-136746904D01*
X109831190Y-137127857D01*
X110307380Y-135604047D02*
X110307380Y-136175476D01*
X110307380Y-135889761D02*
X109307380Y-135889761D01*
X109450238Y-135985000D01*
X109545476Y-136080238D01*
X109593095Y-136175476D01*
X110307380Y-134651666D02*
X110307380Y-135223095D01*
X110307380Y-134937380D02*
X109307380Y-134937380D01*
X109450238Y-135032619D01*
X109545476Y-135127857D01*
X109593095Y-135223095D01*
X110307380Y-133699285D02*
X110307380Y-134270714D01*
X110307380Y-133985000D02*
X109307380Y-133985000D01*
X109450238Y-134080238D01*
X109545476Y-134175476D01*
X109593095Y-134270714D01*
X109307380Y-133365952D02*
X109307380Y-132699285D01*
X110307380Y-133127857D01*
X109307380Y-131651666D02*
X109307380Y-131032619D01*
X109688333Y-131365952D01*
X109688333Y-131223095D01*
X109735952Y-131127857D01*
X109783571Y-131080238D01*
X109878809Y-131032619D01*
X110116904Y-131032619D01*
X110212142Y-131080238D01*
X110259761Y-131127857D01*
X110307380Y-131223095D01*
X110307380Y-131508809D01*
X110259761Y-131604047D01*
X110212142Y-131651666D01*
X110212142Y-130604047D02*
X110259761Y-130556428D01*
X110307380Y-130604047D01*
X110259761Y-130651666D01*
X110212142Y-130604047D01*
X110307380Y-130604047D01*
X109307380Y-130223095D02*
X109307380Y-129604047D01*
X109688333Y-129937380D01*
X109688333Y-129794523D01*
X109735952Y-129699285D01*
X109783571Y-129651666D01*
X109878809Y-129604047D01*
X110116904Y-129604047D01*
X110212142Y-129651666D01*
X110259761Y-129699285D01*
X110307380Y-129794523D01*
X110307380Y-130080238D01*
X110259761Y-130175476D01*
X110212142Y-130223095D01*
X109307380Y-129318333D02*
X110307380Y-128985000D01*
X109307380Y-128651666D01*
X121102380Y-139175476D02*
X120102380Y-139175476D01*
X121102380Y-138604047D01*
X120102380Y-138604047D01*
X121007142Y-137556428D02*
X121054761Y-137604047D01*
X121102380Y-137746904D01*
X121102380Y-137842142D01*
X121054761Y-137985000D01*
X120959523Y-138080238D01*
X120864285Y-138127857D01*
X120673809Y-138175476D01*
X120530952Y-138175476D01*
X120340476Y-138127857D01*
X120245238Y-138080238D01*
X120150000Y-137985000D01*
X120102380Y-137842142D01*
X120102380Y-137746904D01*
X120150000Y-137604047D01*
X120197619Y-137556428D01*
X121102380Y-137127857D02*
X120102380Y-137127857D01*
X120102380Y-136746904D01*
X120150000Y-136651666D01*
X120197619Y-136604047D01*
X120292857Y-136556428D01*
X120435714Y-136556428D01*
X120530952Y-136604047D01*
X120578571Y-136651666D01*
X120626190Y-136746904D01*
X120626190Y-137127857D01*
X121102380Y-135604047D02*
X121102380Y-136175476D01*
X121102380Y-135889761D02*
X120102380Y-135889761D01*
X120245238Y-135985000D01*
X120340476Y-136080238D01*
X120388095Y-136175476D01*
X121102380Y-134651666D02*
X121102380Y-135223095D01*
X121102380Y-134937380D02*
X120102380Y-134937380D01*
X120245238Y-135032619D01*
X120340476Y-135127857D01*
X120388095Y-135223095D01*
X121102380Y-133699285D02*
X121102380Y-134270714D01*
X121102380Y-133985000D02*
X120102380Y-133985000D01*
X120245238Y-134080238D01*
X120340476Y-134175476D01*
X120388095Y-134270714D01*
X120102380Y-133365952D02*
X120102380Y-132699285D01*
X121102380Y-133127857D01*
X121102380Y-131032619D02*
X121102380Y-131604047D01*
X121102380Y-131318333D02*
X120102380Y-131318333D01*
X120245238Y-131413571D01*
X120340476Y-131508809D01*
X120388095Y-131604047D01*
X121007142Y-130604047D02*
X121054761Y-130556428D01*
X121102380Y-130604047D01*
X121054761Y-130651666D01*
X121007142Y-130604047D01*
X121102380Y-130604047D01*
X120530952Y-129985000D02*
X120483333Y-130080238D01*
X120435714Y-130127857D01*
X120340476Y-130175476D01*
X120292857Y-130175476D01*
X120197619Y-130127857D01*
X120150000Y-130080238D01*
X120102380Y-129985000D01*
X120102380Y-129794523D01*
X120150000Y-129699285D01*
X120197619Y-129651666D01*
X120292857Y-129604047D01*
X120340476Y-129604047D01*
X120435714Y-129651666D01*
X120483333Y-129699285D01*
X120530952Y-129794523D01*
X120530952Y-129985000D01*
X120578571Y-130080238D01*
X120626190Y-130127857D01*
X120721428Y-130175476D01*
X120911904Y-130175476D01*
X121007142Y-130127857D01*
X121054761Y-130080238D01*
X121102380Y-129985000D01*
X121102380Y-129794523D01*
X121054761Y-129699285D01*
X121007142Y-129651666D01*
X120911904Y-129604047D01*
X120721428Y-129604047D01*
X120626190Y-129651666D01*
X120578571Y-129699285D01*
X120530952Y-129794523D01*
X120102380Y-129318333D02*
X121102380Y-128985000D01*
X120102380Y-128651666D01*
M02*
