G04 #@! TF.GenerationSoftware,KiCad,Pcbnew,(2017-06-14 revision cf083a20c)-makepkg*
G04 #@! TF.CreationDate,2017-07-19T11:09:17+02:00*
G04 #@! TF.ProjectId,dds_pi,6464735F70692E6B696361645F706362,1.0*
G04 #@! TF.SameCoordinates,Original
G04 #@! TF.FileFunction,Soldermask,Top*
G04 #@! TF.FilePolarity,Negative*
%FSLAX46Y46*%
G04 Gerber Fmt 4.6, Leading zero omitted, Abs format (unit mm)*
G04 Created by KiCad (PCBNEW (2017-06-14 revision cf083a20c)-makepkg) date 07/19/17 11:09:17*
%MOMM*%
%LPD*%
G01*
G04 APERTURE LIST*
%ADD10C,0.150000*%
%ADD11C,1.924000*%
%ADD12C,6.600000*%
%ADD13O,2.100000X2.100000*%
%ADD14R,2.100000X2.100000*%
%ADD15C,2.400000*%
%ADD16C,2.600000*%
%ADD17R,1.900000X1.650000*%
%ADD18O,2.000200X2.899360*%
%ADD19O,3.900120X7.400240*%
%ADD20O,1.400000X1.950000*%
%ADD21O,1.650000X1.350000*%
%ADD22R,0.800000X1.750000*%
%ADD23R,1.900000X2.400000*%
%ADD24R,4.200000X2.400000*%
G04 APERTURE END LIST*
D10*
D11*
X138430000Y-177800000D03*
X135890000Y-177800000D03*
X138430000Y-175260000D03*
X135890000Y-175260000D03*
X138430000Y-172720000D03*
X135890000Y-172720000D03*
X138430000Y-170180000D03*
X135890000Y-170180000D03*
X138430000Y-167640000D03*
X135890000Y-167640000D03*
X138430000Y-165100000D03*
X135890000Y-165100000D03*
X138430000Y-162560000D03*
X135890000Y-162560000D03*
X138430000Y-160020000D03*
X135890000Y-160020000D03*
X138430000Y-157480000D03*
X135890000Y-157480000D03*
X138430000Y-154940000D03*
X135890000Y-154940000D03*
X138430000Y-152400000D03*
X135890000Y-152400000D03*
X138430000Y-149860000D03*
X135890000Y-149860000D03*
X138430000Y-147320000D03*
X135890000Y-147320000D03*
X135890000Y-108585000D03*
X138430000Y-108585000D03*
X135890000Y-111125000D03*
X138430000Y-111125000D03*
X135890000Y-113665000D03*
X138430000Y-113665000D03*
X135890000Y-116205000D03*
X138430000Y-116205000D03*
X135890000Y-118745000D03*
X138430000Y-118745000D03*
X135890000Y-121285000D03*
X138430000Y-121285000D03*
X135890000Y-123825000D03*
X138430000Y-123825000D03*
X135890000Y-126365000D03*
X138430000Y-126365000D03*
X135890000Y-128905000D03*
X138430000Y-128905000D03*
X135890000Y-131445000D03*
X138430000Y-131445000D03*
X135890000Y-133985000D03*
X138430000Y-133985000D03*
X135890000Y-136525000D03*
X138430000Y-136525000D03*
X135890000Y-139065000D03*
X138430000Y-139065000D03*
X60960000Y-39370000D03*
X63500000Y-39370000D03*
X60960000Y-41910000D03*
X63500000Y-41910000D03*
X60960000Y-44450000D03*
X63500000Y-44450000D03*
X60960000Y-46990000D03*
X63500000Y-46990000D03*
X60960000Y-49530000D03*
X63500000Y-49530000D03*
X60960000Y-52070000D03*
X63500000Y-52070000D03*
X60960000Y-54610000D03*
X63500000Y-54610000D03*
X60960000Y-57150000D03*
X63500000Y-57150000D03*
X60960000Y-59690000D03*
X63500000Y-59690000D03*
X60960000Y-62230000D03*
X63500000Y-62230000D03*
X60960000Y-64770000D03*
X63500000Y-64770000D03*
X60960000Y-67310000D03*
X63500000Y-67310000D03*
X60960000Y-69850000D03*
X63500000Y-69850000D03*
X63500000Y-108585000D03*
X60960000Y-108585000D03*
X63500000Y-106045000D03*
X60960000Y-106045000D03*
X63500000Y-103505000D03*
X60960000Y-103505000D03*
X63500000Y-100965000D03*
X60960000Y-100965000D03*
X63500000Y-98425000D03*
X60960000Y-98425000D03*
X63500000Y-95885000D03*
X60960000Y-95885000D03*
X63500000Y-93345000D03*
X60960000Y-93345000D03*
X63500000Y-90805000D03*
X60960000Y-90805000D03*
X63500000Y-88265000D03*
X60960000Y-88265000D03*
X63500000Y-85725000D03*
X60960000Y-85725000D03*
X63500000Y-83185000D03*
X60960000Y-83185000D03*
X63500000Y-80645000D03*
X60960000Y-80645000D03*
X63500000Y-78105000D03*
X60960000Y-78105000D03*
D12*
X123930000Y-55455000D03*
X123930000Y-113455000D03*
X74930000Y-113455000D03*
X74930000Y-55455000D03*
D13*
X73660000Y-60325000D03*
X76200000Y-60325000D03*
X73660000Y-62865000D03*
X76200000Y-62865000D03*
X73660000Y-65405000D03*
X76200000Y-65405000D03*
X73660000Y-67945000D03*
X76200000Y-67945000D03*
X73660000Y-70485000D03*
X76200000Y-70485000D03*
X73660000Y-73025000D03*
X76200000Y-73025000D03*
X73660000Y-75565000D03*
X76200000Y-75565000D03*
X73660000Y-78105000D03*
X76200000Y-78105000D03*
X73660000Y-80645000D03*
X76200000Y-80645000D03*
X73660000Y-83185000D03*
X76200000Y-83185000D03*
X73660000Y-85725000D03*
X76200000Y-85725000D03*
X73660000Y-88265000D03*
X76200000Y-88265000D03*
X73660000Y-90805000D03*
X76200000Y-90805000D03*
X73660000Y-93345000D03*
X76200000Y-93345000D03*
X73660000Y-95885000D03*
X76200000Y-95885000D03*
X73660000Y-98425000D03*
X76200000Y-98425000D03*
X73660000Y-100965000D03*
X76200000Y-100965000D03*
X73660000Y-103505000D03*
X76200000Y-103505000D03*
X73660000Y-106045000D03*
X76200000Y-106045000D03*
X73660000Y-108585000D03*
D14*
X76200000Y-108585000D03*
D15*
X64135000Y-124460000D03*
D16*
X66675000Y-127000000D03*
X66675000Y-121920000D03*
X61595000Y-121920000D03*
X61595000Y-127000000D03*
D17*
X79990000Y-137160000D03*
X77490000Y-137160000D03*
X109962000Y-140970000D03*
X107462000Y-140970000D03*
X118638000Y-140970000D03*
X121138000Y-140970000D03*
X105390000Y-140970000D03*
X102890000Y-140970000D03*
X113685000Y-140970000D03*
X116185000Y-140970000D03*
D18*
X79969360Y-141683740D03*
X77470000Y-141683740D03*
D19*
X72369680Y-145948400D03*
X82567780Y-145948400D03*
D20*
X96845000Y-153115000D03*
X89845000Y-153115000D03*
D21*
X95845000Y-150415000D03*
X90845000Y-150415000D03*
D22*
X94645000Y-150415000D03*
X93995000Y-150415000D03*
X93345000Y-150415000D03*
X92695000Y-150415000D03*
X92045000Y-150415000D03*
D15*
X64135000Y-141605000D03*
D16*
X66675000Y-144145000D03*
X66675000Y-139065000D03*
X61595000Y-139065000D03*
X61595000Y-144145000D03*
D13*
X89535000Y-132715000D03*
D14*
X89535000Y-130175000D03*
D13*
X113665000Y-151765000D03*
X111125000Y-151765000D03*
X108585000Y-151765000D03*
X106045000Y-151765000D03*
D14*
X103505000Y-151765000D03*
X118745000Y-151765000D03*
D13*
X121285000Y-151765000D03*
X123825000Y-151765000D03*
X126365000Y-151765000D03*
X128905000Y-151765000D03*
D14*
X89535000Y-125095000D03*
D23*
X103110000Y-138405000D03*
X107710000Y-138405000D03*
X105410000Y-138405000D03*
D24*
X105410000Y-132105000D03*
X116205000Y-132105000D03*
D23*
X116205000Y-138405000D03*
X118505000Y-138405000D03*
X113905000Y-138405000D03*
M02*
