M48
;DRILL file {KiCad (2017-06-14 revision cf083a20c)-makepkg} date 07/19/17 11:09:21
;FORMAT={2:4/ absolute / inch / suppress leading zeros}
FMAT,2
INCH,TZ
T1C0.012
T2C0.020
T3C0.022
T4C0.039
T5C0.039
T6C0.059
T7C0.067
T8C0.087
%
G90
G05
M72
T1
X31000Y-35250
X31500Y-34750
X39500Y-34750
X42500Y-56750
X47500Y-56750
T4
X40750Y-59750
X41750Y-59750
X42750Y-59750
X43750Y-59750
X44750Y-59750
X29000Y-23750
X29000Y-24750
X29000Y-25750
X29000Y-26750
X29000Y-27750
X29000Y-28750
X29000Y-29750
X29000Y-30750
X29000Y-31750
X29000Y-32750
X29000Y-33750
X29000Y-34750
X29000Y-35750
X29000Y-36750
X29000Y-37750
X29000Y-38750
X29000Y-39750
X29000Y-40750
X29000Y-41750
X29000Y-42750
X30000Y-23750
X30000Y-24750
X30000Y-25750
X30000Y-26750
X30000Y-27750
X30000Y-28750
X30000Y-29750
X30000Y-30750
X30000Y-31750
X30000Y-32750
X30000Y-33750
X30000Y-34750
X30000Y-35750
X30000Y-36750
X30000Y-37750
X30000Y-38750
X30000Y-39750
X30000Y-40750
X30000Y-41750
X30000Y-42750
X46750Y-59750
X47750Y-59750
X48750Y-59750
X49750Y-59750
X50750Y-59750
X35250Y-49250
X35250Y-51250
X35250Y-52250
X24000Y-15500
X24000Y-16500
X24000Y-17500
X24000Y-18500
X24000Y-19500
X24000Y-20500
X24000Y-21500
X24000Y-22500
X24000Y-23500
X24000Y-24500
X24000Y-25500
X24000Y-26500
X24000Y-27500
X24000Y-30750
X24000Y-31750
X24000Y-32750
X24000Y-33750
X24000Y-34750
X24000Y-35750
X24000Y-36750
X24000Y-37750
X24000Y-38750
X24000Y-39750
X24000Y-40750
X24000Y-41750
X24000Y-42750
X25000Y-15500
X25000Y-16500
X25000Y-17500
X25000Y-18500
X25000Y-19500
X25000Y-20500
X25000Y-21500
X25000Y-22500
X25000Y-23500
X25000Y-24500
X25000Y-25500
X25000Y-26500
X25000Y-27500
X25000Y-30750
X25000Y-31750
X25000Y-32750
X25000Y-33750
X25000Y-34750
X25000Y-35750
X25000Y-36750
X25000Y-37750
X25000Y-38750
X25000Y-39750
X25000Y-40750
X25000Y-41750
X25000Y-42750
X53500Y-42750
X53500Y-43750
X53500Y-44750
X53500Y-45750
X53500Y-46750
X53500Y-47750
X53500Y-48750
X53500Y-49750
X53500Y-50750
X53500Y-51750
X53500Y-52750
X53500Y-53750
X53500Y-54750
X53500Y-58000
X53500Y-59000
X53500Y-60000
X53500Y-61000
X53500Y-62000
X53500Y-63000
X53500Y-64000
X53500Y-65000
X53500Y-66000
X53500Y-67000
X53500Y-68000
X53500Y-69000
X53500Y-70000
X54500Y-42750
X54500Y-43750
X54500Y-44750
X54500Y-45750
X54500Y-46750
X54500Y-47750
X54500Y-48750
X54500Y-49750
X54500Y-50750
X54500Y-51750
X54500Y-52750
X54500Y-53750
X54500Y-54750
X54500Y-58000
X54500Y-59000
X54500Y-60000
X54500Y-61000
X54500Y-62000
X54500Y-63000
X54500Y-64000
X54500Y-65000
X54500Y-66000
X54500Y-67000
X54500Y-68000
X54500Y-69000
X54500Y-70000
T5
X30500Y-55781
X31484Y-55781
T6
X25250Y-49000
X25250Y-55750
T7
X24250Y-48000
X24250Y-50000
X26250Y-48000
X26250Y-50000
X24250Y-54750
X24250Y-56750
X26250Y-54750
X26250Y-56750
T8
X28492Y-57460
X32507Y-57460
T2
X35372Y-60409G85X35372Y-60154
G05
X38128Y-60409G85X38128Y-60154
G05
T3
X35707Y-59219G85X35825Y-59219
G05
X37675Y-59219G85X37793Y-59219
G05
T0
M30
